<mxfile host="Electron" agent="Mozilla/5.0 (X11; Linux x86_64) AppleWebKit/537.36 (KHTML, like Gecko) draw.io/24.7.5 Chrome/126.0.6478.183 Electron/31.3.0 Safari/537.36" version="24.7.5">
  <diagram name="Page-1" id="D5MxORdLZJmm1Y0uXRn0">
    <mxGraphModel dx="-8886" dy="1591" grid="1" gridSize="5" guides="1" tooltips="1" connect="0" arrows="1" fold="1" page="0" pageScale="1" pageWidth="353" pageHeight="250" math="0" shadow="0">
      <root>
        <mxCell id="0" />
        <mxCell id="1" parent="0" />
        <mxCell id="ByaOrVBiVzMIFA-mLrSC-65" style="edgeStyle=orthogonalEdgeStyle;rounded=0;orthogonalLoop=1;jettySize=auto;html=1;" parent="1" edge="1">
          <mxGeometry relative="1" as="geometry">
            <mxPoint x="11620.833333333334" y="180.5" as="targetPoint" />
            <mxPoint x="11285" y="180.5" as="sourcePoint" />
          </mxGeometry>
        </mxCell>
        <mxCell id="ByaOrVBiVzMIFA-mLrSC-1" value="" style="shape=trapezoid;perimeter=trapezoidPerimeter;whiteSpace=wrap;html=1;fixedSize=1;direction=south;" parent="1" vertex="1">
          <mxGeometry x="11240" y="-590" width="160" height="1630" as="geometry" />
        </mxCell>
        <mxCell id="ByaOrVBiVzMIFA-mLrSC-5" value="" style="whiteSpace=wrap;html=1;aspect=fixed;" parent="1" vertex="1">
          <mxGeometry x="10799" y="-561" width="80" height="80" as="geometry" />
        </mxCell>
        <mxCell id="ByaOrVBiVzMIFA-mLrSC-7" value="" style="whiteSpace=wrap;html=1;aspect=fixed;" parent="1" vertex="1">
          <mxGeometry x="10800" y="-463" width="80" height="80" as="geometry" />
        </mxCell>
        <mxCell id="ByaOrVBiVzMIFA-mLrSC-8" value="" style="whiteSpace=wrap;html=1;aspect=fixed;" parent="1" vertex="1">
          <mxGeometry x="10799" y="-361" width="80" height="80" as="geometry" />
        </mxCell>
        <mxCell id="ByaOrVBiVzMIFA-mLrSC-9" value="" style="whiteSpace=wrap;html=1;aspect=fixed;" parent="1" vertex="1">
          <mxGeometry x="10800" y="-261" width="80" height="80" as="geometry" />
        </mxCell>
        <mxCell id="ByaOrVBiVzMIFA-mLrSC-10" style="edgeStyle=orthogonalEdgeStyle;rounded=0;orthogonalLoop=1;jettySize=auto;html=1;entryX=0.029;entryY=1;entryDx=0;entryDy=0;entryPerimeter=0;" parent="1" source="ByaOrVBiVzMIFA-mLrSC-5" edge="1">
          <mxGeometry relative="1" as="geometry">
            <mxPoint x="11240" y="-520.745" as="targetPoint" />
          </mxGeometry>
        </mxCell>
        <mxCell id="ByaOrVBiVzMIFA-mLrSC-17" style="edgeStyle=orthogonalEdgeStyle;rounded=0;orthogonalLoop=1;jettySize=auto;html=1;entryX=0.089;entryY=1.008;entryDx=0;entryDy=0;entryPerimeter=0;" parent="1" source="ByaOrVBiVzMIFA-mLrSC-9" edge="1">
          <mxGeometry relative="1" as="geometry">
            <mxPoint x="11243.72" y="-220.04499999999985" as="targetPoint" />
            <Array as="points">
              <mxPoint x="11244" y="-221" />
            </Array>
          </mxGeometry>
        </mxCell>
        <mxCell id="ByaOrVBiVzMIFA-mLrSC-19" style="edgeStyle=orthogonalEdgeStyle;rounded=0;orthogonalLoop=1;jettySize=auto;html=1;entryX=0.05;entryY=1.003;entryDx=0;entryDy=0;entryPerimeter=0;" parent="1" edge="1">
          <mxGeometry relative="1" as="geometry">
            <mxPoint x="10880" y="-420" as="sourcePoint" />
            <mxPoint x="11239.52" y="-420.2499999999998" as="targetPoint" />
          </mxGeometry>
        </mxCell>
        <mxCell id="ByaOrVBiVzMIFA-mLrSC-20" style="edgeStyle=orthogonalEdgeStyle;rounded=0;orthogonalLoop=1;jettySize=auto;html=1;entryX=0.071;entryY=1.003;entryDx=0;entryDy=0;entryPerimeter=0;" parent="1" source="ByaOrVBiVzMIFA-mLrSC-8" edge="1">
          <mxGeometry relative="1" as="geometry">
            <mxPoint x="11239.52" y="-320.75499999999965" as="targetPoint" />
          </mxGeometry>
        </mxCell>
        <mxCell id="ByaOrVBiVzMIFA-mLrSC-23" value="+" style="text;strokeColor=none;fillColor=none;align=left;verticalAlign=middle;spacingLeft=4;spacingRight=4;overflow=hidden;points=[[0,0.5],[1,0.5]];portConstraint=eastwest;rotatable=0;whiteSpace=wrap;html=1;" parent="1" vertex="1">
          <mxGeometry x="10829" y="-531" width="20" height="20" as="geometry" />
        </mxCell>
        <mxCell id="ByaOrVBiVzMIFA-mLrSC-24" value="-" style="text;strokeColor=none;fillColor=none;align=left;verticalAlign=middle;spacingLeft=4;spacingRight=4;overflow=hidden;points=[[0,0.5],[1,0.5]];portConstraint=eastwest;rotatable=0;whiteSpace=wrap;html=1;" parent="1" vertex="1">
          <mxGeometry x="10830" y="-430" width="20" height="20" as="geometry" />
        </mxCell>
        <mxCell id="ByaOrVBiVzMIFA-mLrSC-25" value="*" style="text;strokeColor=none;fillColor=none;align=left;verticalAlign=middle;spacingLeft=4;spacingRight=4;overflow=hidden;points=[[0,0.5],[1,0.5]];portConstraint=eastwest;rotatable=0;whiteSpace=wrap;html=1;" parent="1" vertex="1">
          <mxGeometry x="10830" y="-329" width="20" height="20" as="geometry" />
        </mxCell>
        <mxCell id="ByaOrVBiVzMIFA-mLrSC-26" value="/" style="text;strokeColor=none;fillColor=none;align=left;verticalAlign=middle;spacingLeft=4;spacingRight=4;overflow=hidden;points=[[0,0.5],[1,0.5]];portConstraint=eastwest;rotatable=0;whiteSpace=wrap;html=1;" parent="1" vertex="1">
          <mxGeometry x="10830" y="-230" width="20" height="20" as="geometry" />
        </mxCell>
        <mxCell id="ByaOrVBiVzMIFA-mLrSC-27" value="A" style="text;strokeColor=none;fillColor=none;align=left;verticalAlign=middle;spacingLeft=4;spacingRight=4;overflow=hidden;points=[[0,0.5],[1,0.5]];portConstraint=eastwest;rotatable=0;whiteSpace=wrap;html=1;fontSize=8;" parent="1" vertex="1">
          <mxGeometry x="10803" y="-450" width="27" height="16" as="geometry" />
        </mxCell>
        <mxCell id="ByaOrVBiVzMIFA-mLrSC-28" value="B" style="text;strokeColor=none;fillColor=none;align=left;verticalAlign=middle;spacingLeft=4;spacingRight=4;overflow=hidden;points=[[0,0.5],[1,0.5]];portConstraint=eastwest;rotatable=0;whiteSpace=wrap;html=1;fontSize=8;" parent="1" vertex="1">
          <mxGeometry x="10803" y="-409" width="28" height="16" as="geometry" />
        </mxCell>
        <mxCell id="ByaOrVBiVzMIFA-mLrSC-29" value="A-B" style="text;strokeColor=none;fillColor=none;align=left;verticalAlign=middle;spacingLeft=4;spacingRight=4;overflow=hidden;points=[[0,0.5],[1,0.5]];portConstraint=eastwest;rotatable=0;whiteSpace=wrap;html=1;fontSize=8;" parent="1" vertex="1">
          <mxGeometry x="10854" y="-428" width="49" height="16" as="geometry" />
        </mxCell>
        <mxCell id="ByaOrVBiVzMIFA-mLrSC-30" value="B" style="text;strokeColor=none;fillColor=none;align=left;verticalAlign=middle;spacingLeft=4;spacingRight=4;overflow=hidden;points=[[0,0.5],[1,0.5]];portConstraint=eastwest;rotatable=0;whiteSpace=wrap;html=1;fontSize=8;" parent="1" vertex="1">
          <mxGeometry x="10800" y="-309" width="28" height="16" as="geometry" />
        </mxCell>
        <mxCell id="ByaOrVBiVzMIFA-mLrSC-31" value="A*B" style="text;strokeColor=none;fillColor=none;align=left;verticalAlign=middle;spacingLeft=4;spacingRight=4;overflow=hidden;points=[[0,0.5],[1,0.5]];portConstraint=eastwest;rotatable=0;whiteSpace=wrap;html=1;fontSize=8;" parent="1" vertex="1">
          <mxGeometry x="10854" y="-329" width="49" height="16" as="geometry" />
        </mxCell>
        <mxCell id="ByaOrVBiVzMIFA-mLrSC-32" value="A" style="text;strokeColor=none;fillColor=none;align=left;verticalAlign=middle;spacingLeft=4;spacingRight=4;overflow=hidden;points=[[0,0.5],[1,0.5]];portConstraint=eastwest;rotatable=0;whiteSpace=wrap;html=1;fontSize=8;" parent="1" vertex="1">
          <mxGeometry x="10800" y="-348" width="27" height="16" as="geometry" />
        </mxCell>
        <mxCell id="ByaOrVBiVzMIFA-mLrSC-33" value="B" style="text;strokeColor=none;fillColor=none;align=left;verticalAlign=middle;spacingLeft=4;spacingRight=4;overflow=hidden;points=[[0,0.5],[1,0.5]];portConstraint=eastwest;rotatable=0;whiteSpace=wrap;html=1;fontSize=8;" parent="1" vertex="1">
          <mxGeometry x="10799" y="-208" width="28" height="16" as="geometry" />
        </mxCell>
        <mxCell id="ByaOrVBiVzMIFA-mLrSC-34" value="A/B" style="text;strokeColor=none;fillColor=none;align=left;verticalAlign=middle;spacingLeft=4;spacingRight=4;overflow=hidden;points=[[0,0.5],[1,0.5]];portConstraint=eastwest;rotatable=0;whiteSpace=wrap;html=1;fontSize=8;" parent="1" vertex="1">
          <mxGeometry x="10857" y="-229" width="49" height="16" as="geometry" />
        </mxCell>
        <mxCell id="ByaOrVBiVzMIFA-mLrSC-35" value="A" style="text;strokeColor=none;fillColor=none;align=left;verticalAlign=middle;spacingLeft=4;spacingRight=4;overflow=hidden;points=[[0,0.5],[1,0.5]];portConstraint=eastwest;rotatable=0;whiteSpace=wrap;html=1;fontSize=8;" parent="1" vertex="1">
          <mxGeometry x="10799" y="-251" width="26" height="16" as="geometry" />
        </mxCell>
        <mxCell id="ByaOrVBiVzMIFA-mLrSC-36" value="B" style="text;strokeColor=none;fillColor=none;align=left;verticalAlign=middle;spacingLeft=4;spacingRight=4;overflow=hidden;points=[[0,0.5],[1,0.5]];portConstraint=eastwest;rotatable=0;whiteSpace=wrap;html=1;fontSize=8;" parent="1" vertex="1">
          <mxGeometry x="10800" y="-509" width="28" height="16" as="geometry" />
        </mxCell>
        <mxCell id="ByaOrVBiVzMIFA-mLrSC-37" value="A+B" style="text;strokeColor=none;fillColor=none;align=left;verticalAlign=middle;spacingLeft=4;spacingRight=4;overflow=hidden;points=[[0,0.5],[1,0.5]];portConstraint=eastwest;rotatable=0;whiteSpace=wrap;html=1;fontSize=8;" parent="1" vertex="1">
          <mxGeometry x="10852" y="-529" width="49" height="16" as="geometry" />
        </mxCell>
        <mxCell id="ByaOrVBiVzMIFA-mLrSC-38" value="A" style="text;strokeColor=none;fillColor=none;align=left;verticalAlign=middle;spacingLeft=4;spacingRight=4;overflow=hidden;points=[[0,0.5],[1,0.5]];portConstraint=eastwest;rotatable=0;whiteSpace=wrap;html=1;fontSize=8;" parent="1" vertex="1">
          <mxGeometry x="10800" y="-551" width="27" height="16" as="geometry" />
        </mxCell>
        <mxCell id="ByaOrVBiVzMIFA-mLrSC-39" value="1" style="text;strokeColor=none;fillColor=none;align=left;verticalAlign=middle;spacingLeft=4;spacingRight=4;overflow=hidden;points=[[0,0.5],[1,0.5]];portConstraint=eastwest;rotatable=0;whiteSpace=wrap;html=1;fontSize=10;" parent="1" vertex="1">
          <mxGeometry x="11244" y="-428" width="49" height="16" as="geometry" />
        </mxCell>
        <mxCell id="ByaOrVBiVzMIFA-mLrSC-40" value="0" style="text;strokeColor=none;fillColor=none;align=left;verticalAlign=middle;spacingLeft=4;spacingRight=4;overflow=hidden;points=[[0,0.5],[1,0.5]];portConstraint=eastwest;rotatable=0;whiteSpace=wrap;html=1;fontSize=10;" parent="1" vertex="1">
          <mxGeometry x="11244" y="-529" width="49" height="16" as="geometry" />
        </mxCell>
        <mxCell id="ByaOrVBiVzMIFA-mLrSC-41" value="2" style="text;strokeColor=none;fillColor=none;align=left;verticalAlign=middle;spacingLeft=4;spacingRight=4;overflow=hidden;points=[[0,0.5],[1,0.5]];portConstraint=eastwest;rotatable=0;whiteSpace=wrap;html=1;fontSize=10;" parent="1" vertex="1">
          <mxGeometry x="11244" y="-330" width="49" height="16" as="geometry" />
        </mxCell>
        <mxCell id="ByaOrVBiVzMIFA-mLrSC-42" value="3" style="text;strokeColor=none;fillColor=none;align=left;verticalAlign=middle;spacingLeft=4;spacingRight=4;overflow=hidden;points=[[0,0.5],[1,0.5]];portConstraint=eastwest;rotatable=0;whiteSpace=wrap;html=1;fontSize=10;" parent="1" vertex="1">
          <mxGeometry x="11244" y="-228" width="49" height="16" as="geometry" />
        </mxCell>
        <mxCell id="ByaOrVBiVzMIFA-mLrSC-43" value="6" style="text;strokeColor=none;fillColor=none;align=left;verticalAlign=middle;spacingLeft=4;spacingRight=4;overflow=hidden;points=[[0,0.5],[1,0.5]];portConstraint=eastwest;rotatable=0;whiteSpace=wrap;html=1;fontSize=10;" parent="1" vertex="1">
          <mxGeometry x="11244" y="71" width="49" height="16" as="geometry" />
        </mxCell>
        <mxCell id="ByaOrVBiVzMIFA-mLrSC-44" value="5" style="text;strokeColor=none;fillColor=none;align=left;verticalAlign=middle;spacingLeft=4;spacingRight=4;overflow=hidden;points=[[0,0.5],[1,0.5]];portConstraint=eastwest;rotatable=0;whiteSpace=wrap;html=1;fontSize=10;" parent="1" vertex="1">
          <mxGeometry x="11244" y="-28" width="49" height="16" as="geometry" />
        </mxCell>
        <mxCell id="ByaOrVBiVzMIFA-mLrSC-45" value="4" style="text;strokeColor=none;fillColor=none;align=left;verticalAlign=middle;spacingLeft=4;spacingRight=4;overflow=hidden;points=[[0,0.5],[1,0.5]];portConstraint=eastwest;rotatable=0;whiteSpace=wrap;html=1;fontSize=10;" parent="1" vertex="1">
          <mxGeometry x="11244" y="-134" width="49" height="16" as="geometry" />
        </mxCell>
        <mxCell id="ByaOrVBiVzMIFA-mLrSC-54" value="12" style="text;strokeColor=none;fillColor=none;align=left;verticalAlign=middle;spacingLeft=4;spacingRight=4;overflow=hidden;points=[[0,0.5],[1,0.5]];portConstraint=eastwest;rotatable=0;whiteSpace=wrap;html=1;fontSize=10;" parent="1" vertex="1">
          <mxGeometry x="11245" y="675.5" width="49" height="16" as="geometry" />
        </mxCell>
        <mxCell id="ByaOrVBiVzMIFA-mLrSC-55" value="11" style="text;strokeColor=none;fillColor=none;align=left;verticalAlign=middle;spacingLeft=4;spacingRight=4;overflow=hidden;points=[[0,0.5],[1,0.5]];portConstraint=eastwest;rotatable=0;whiteSpace=wrap;html=1;fontSize=10;" parent="1" vertex="1">
          <mxGeometry x="11245" y="570" width="49" height="16" as="geometry" />
        </mxCell>
        <mxCell id="ByaOrVBiVzMIFA-mLrSC-56" value="10" style="text;strokeColor=none;fillColor=none;align=left;verticalAlign=middle;spacingLeft=4;spacingRight=4;overflow=hidden;points=[[0,0.5],[1,0.5]];portConstraint=eastwest;rotatable=0;whiteSpace=wrap;html=1;fontSize=10;" parent="1" vertex="1">
          <mxGeometry x="11245" y="471" width="49" height="16" as="geometry" />
        </mxCell>
        <mxCell id="ByaOrVBiVzMIFA-mLrSC-57" value="9" style="text;strokeColor=none;fillColor=none;align=left;verticalAlign=middle;spacingLeft=4;spacingRight=4;overflow=hidden;points=[[0,0.5],[1,0.5]];portConstraint=eastwest;rotatable=0;whiteSpace=wrap;html=1;fontSize=10;" parent="1" vertex="1">
          <mxGeometry x="11245" y="372" width="49" height="16" as="geometry" />
        </mxCell>
        <mxCell id="ByaOrVBiVzMIFA-mLrSC-58" value="8" style="text;strokeColor=none;fillColor=none;align=left;verticalAlign=middle;spacingLeft=4;spacingRight=4;overflow=hidden;points=[[0,0.5],[1,0.5]];portConstraint=eastwest;rotatable=0;whiteSpace=wrap;html=1;fontSize=10;" parent="1" vertex="1">
          <mxGeometry x="11245" y="276" width="49" height="16" as="geometry" />
        </mxCell>
        <mxCell id="ByaOrVBiVzMIFA-mLrSC-59" value="7" style="text;strokeColor=none;fillColor=none;align=left;verticalAlign=middle;spacingLeft=4;spacingRight=4;overflow=hidden;points=[[0,0.5],[1,0.5]];portConstraint=eastwest;rotatable=0;whiteSpace=wrap;html=1;fontSize=10;" parent="1" vertex="1">
          <mxGeometry x="11244" y="172" width="49" height="16" as="geometry" />
        </mxCell>
        <mxCell id="ByaOrVBiVzMIFA-mLrSC-61" value="15" style="text;strokeColor=none;fillColor=none;align=left;verticalAlign=middle;spacingLeft=4;spacingRight=4;overflow=hidden;points=[[0,0.5],[1,0.5]];portConstraint=eastwest;rotatable=0;whiteSpace=wrap;html=1;fontSize=10;" parent="1" vertex="1">
          <mxGeometry x="11245" y="974" width="49" height="16" as="geometry" />
        </mxCell>
        <mxCell id="ByaOrVBiVzMIFA-mLrSC-62" value="14" style="text;strokeColor=none;fillColor=none;align=left;verticalAlign=middle;spacingLeft=4;spacingRight=4;overflow=hidden;points=[[0,0.5],[1,0.5]];portConstraint=eastwest;rotatable=0;whiteSpace=wrap;html=1;fontSize=10;" parent="1" vertex="1">
          <mxGeometry x="11245" y="874.5" width="49" height="16" as="geometry" />
        </mxCell>
        <mxCell id="ByaOrVBiVzMIFA-mLrSC-63" value="13" style="text;strokeColor=none;fillColor=none;align=left;verticalAlign=middle;spacingLeft=4;spacingRight=4;overflow=hidden;points=[[0,0.5],[1,0.5]];portConstraint=eastwest;rotatable=0;whiteSpace=wrap;html=1;fontSize=10;" parent="1" vertex="1">
          <mxGeometry x="11245" y="770" width="49" height="16" as="geometry" />
        </mxCell>
        <mxCell id="ByaOrVBiVzMIFA-mLrSC-66" value="&amp;nbsp;ALU_OUT" style="text;strokeColor=none;fillColor=none;align=left;verticalAlign=middle;spacingLeft=4;spacingRight=4;overflow=hidden;points=[[0,0.5],[1,0.5]];portConstraint=eastwest;rotatable=0;whiteSpace=wrap;html=1;fontSize=22;" parent="1" vertex="1">
          <mxGeometry x="11818" y="185" width="140" height="25" as="geometry" />
        </mxCell>
        <mxCell id="ByaOrVBiVzMIFA-mLrSC-67" value="" style="endArrow=none;html=1;rounded=0;fontSize=1;spacing=-2;" parent="1" edge="1">
          <mxGeometry width="50" height="50" relative="1" as="geometry">
            <mxPoint x="11541" y="200" as="sourcePoint" />
            <mxPoint x="11580" y="160" as="targetPoint" />
            <Array as="points" />
          </mxGeometry>
        </mxCell>
        <mxCell id="ByaOrVBiVzMIFA-mLrSC-68" value="16" style="edgeLabel;html=1;align=center;verticalAlign=middle;resizable=0;points=[];fontSize=9;" parent="ByaOrVBiVzMIFA-mLrSC-67" vertex="1" connectable="0">
          <mxGeometry x="0.0533" y="-4" relative="1" as="geometry">
            <mxPoint x="-2" y="-24" as="offset" />
          </mxGeometry>
        </mxCell>
        <mxCell id="ByaOrVBiVzMIFA-mLrSC-71" style="edgeStyle=orthogonalEdgeStyle;rounded=0;orthogonalLoop=1;jettySize=auto;html=1;" parent="1" source="ByaOrVBiVzMIFA-mLrSC-69" edge="1">
          <mxGeometry relative="1" as="geometry">
            <mxPoint x="11235" y="-119.5" as="targetPoint" />
          </mxGeometry>
        </mxCell>
        <mxCell id="ByaOrVBiVzMIFA-mLrSC-69" value="" style="verticalLabelPosition=bottom;shadow=0;dashed=0;align=center;html=1;verticalAlign=top;shape=mxgraph.electrical.logic_gates.logic_gate;operation=and;" parent="1" vertex="1">
          <mxGeometry x="10777" y="-156" width="125" height="75" as="geometry" />
        </mxCell>
        <mxCell id="ByaOrVBiVzMIFA-mLrSC-155" style="edgeStyle=orthogonalEdgeStyle;rounded=0;orthogonalLoop=1;jettySize=auto;html=1;entryX=0.214;entryY=0.25;entryDx=0;entryDy=0;entryPerimeter=0;" parent="1" target="ByaOrVBiVzMIFA-mLrSC-111" edge="1">
          <mxGeometry relative="1" as="geometry">
            <mxPoint x="10808.964179999999" y="162.98000000000002" as="targetPoint" />
            <mxPoint x="10406" y="-540" as="sourcePoint" />
            <Array as="points">
              <mxPoint x="10406" y="-540" />
              <mxPoint x="10540" y="-540" />
              <mxPoint x="10540" y="162" />
            </Array>
          </mxGeometry>
        </mxCell>
        <mxCell id="ByaOrVBiVzMIFA-mLrSC-261" style="edgeStyle=orthogonalEdgeStyle;rounded=0;orthogonalLoop=1;jettySize=auto;html=1;entryX=0.174;entryY=0.24;entryDx=0;entryDy=0;entryPerimeter=0;" parent="1" source="ByaOrVBiVzMIFA-mLrSC-80" target="ByaOrVBiVzMIFA-mLrSC-238" edge="1">
          <mxGeometry relative="1" as="geometry">
            <mxPoint x="10540" y="376.6666666666667" as="targetPoint" />
            <Array as="points">
              <mxPoint x="10541" y="-540" />
              <mxPoint x="10541" y="362" />
              <mxPoint x="10801" y="362" />
            </Array>
          </mxGeometry>
        </mxCell>
        <mxCell id="ByaOrVBiVzMIFA-mLrSC-262" style="edgeStyle=orthogonalEdgeStyle;rounded=0;orthogonalLoop=1;jettySize=auto;html=1;entryX=0.001;entryY=0.492;entryDx=0;entryDy=0;entryPerimeter=0;" parent="1" edge="1">
          <mxGeometry relative="1" as="geometry">
            <mxPoint x="10790.027" y="459.87200000000007" as="targetPoint" />
            <mxPoint x="10410" y="-540" as="sourcePoint" />
            <Array as="points">
              <mxPoint x="10540" y="-540" />
              <mxPoint x="10540" y="460" />
            </Array>
          </mxGeometry>
        </mxCell>
        <mxCell id="ByaOrVBiVzMIFA-mLrSC-263" style="edgeStyle=orthogonalEdgeStyle;rounded=0;orthogonalLoop=1;jettySize=auto;html=1;entryX=-0.08;entryY=0.576;entryDx=0;entryDy=0;entryPerimeter=0;" parent="1" target="ByaOrVBiVzMIFA-mLrSC-245" edge="1">
          <mxGeometry relative="1" as="geometry">
            <mxPoint x="10571" y="555.8333333333334" as="targetPoint" />
            <mxPoint x="10440" y="-540" as="sourcePoint" />
            <Array as="points">
              <mxPoint x="10540" y="-540" />
              <mxPoint x="10540" y="560" />
              <mxPoint x="10571" y="560" />
            </Array>
          </mxGeometry>
        </mxCell>
        <mxCell id="ByaOrVBiVzMIFA-mLrSC-264" style="edgeStyle=orthogonalEdgeStyle;rounded=0;orthogonalLoop=1;jettySize=auto;html=1;entryX=-0.089;entryY=0.431;entryDx=0;entryDy=0;entryPerimeter=0;" parent="1" target="ByaOrVBiVzMIFA-mLrSC-249" edge="1">
          <mxGeometry relative="1" as="geometry">
            <mxPoint x="10548.51" y="750.8333333333334" as="targetPoint" />
            <mxPoint x="10415" y="-540" as="sourcePoint" />
            <Array as="points">
              <mxPoint x="10540" y="-540" />
              <mxPoint x="10540" y="660" />
              <mxPoint x="10789" y="660" />
            </Array>
          </mxGeometry>
        </mxCell>
        <mxCell id="ByaOrVBiVzMIFA-mLrSC-283" style="edgeStyle=orthogonalEdgeStyle;rounded=0;orthogonalLoop=1;jettySize=auto;html=1;entryX=0.04;entryY=0.395;entryDx=0;entryDy=0;entryPerimeter=0;" parent="1" source="ByaOrVBiVzMIFA-mLrSC-80" target="ByaOrVBiVzMIFA-mLrSC-253" edge="1">
          <mxGeometry relative="1" as="geometry">
            <mxPoint x="10540" y="796.7391304347826" as="targetPoint" />
            <Array as="points">
              <mxPoint x="10540" y="-540" />
              <mxPoint x="10540" y="760" />
            </Array>
          </mxGeometry>
        </mxCell>
        <mxCell id="ByaOrVBiVzMIFA-mLrSC-284" style="edgeStyle=orthogonalEdgeStyle;rounded=0;orthogonalLoop=1;jettySize=auto;html=1;entryX=0;entryY=0.469;entryDx=0;entryDy=0;entryPerimeter=0;" parent="1" source="ByaOrVBiVzMIFA-mLrSC-80" target="ByaOrVBiVzMIFA-mLrSC-257" edge="1">
          <mxGeometry relative="1" as="geometry">
            <mxPoint x="10540" y="885" as="targetPoint" />
            <Array as="points">
              <mxPoint x="10540" y="-540" />
              <mxPoint x="10540" y="860" />
            </Array>
          </mxGeometry>
        </mxCell>
        <mxCell id="ByaOrVBiVzMIFA-mLrSC-80" value="A" style="text;strokeColor=none;fillColor=none;align=left;verticalAlign=middle;spacingLeft=4;spacingRight=4;overflow=hidden;points=[[0,0.5],[1,0.5]];portConstraint=eastwest;rotatable=0;whiteSpace=wrap;html=1;fontSize=32;" parent="1" vertex="1">
          <mxGeometry x="10374" y="-565" width="35" height="44" as="geometry" />
        </mxCell>
        <mxCell id="ByaOrVBiVzMIFA-mLrSC-83" style="edgeStyle=orthogonalEdgeStyle;rounded=0;orthogonalLoop=1;jettySize=auto;html=1;entryX=0;entryY=0.5;entryDx=0;entryDy=0;entryPerimeter=0;" parent="1" edge="1">
          <mxGeometry relative="1" as="geometry">
            <mxPoint x="10400" y="-540" as="sourcePoint" />
            <mxPoint x="10800" y="-540" as="targetPoint" />
          </mxGeometry>
        </mxCell>
        <mxCell id="ByaOrVBiVzMIFA-mLrSC-84" style="edgeStyle=orthogonalEdgeStyle;rounded=0;orthogonalLoop=1;jettySize=auto;html=1;entryX=-0.006;entryY=0.303;entryDx=0;entryDy=0;entryPerimeter=0;" parent="1" edge="1">
          <mxGeometry relative="1" as="geometry">
            <mxPoint x="10400" y="-539.9909909909909" as="sourcePoint" />
            <mxPoint x="10799.52" y="-438.76" as="targetPoint" />
            <Array as="points">
              <mxPoint x="10540" y="-540" />
              <mxPoint x="10540" y="-439" />
            </Array>
          </mxGeometry>
        </mxCell>
        <mxCell id="ByaOrVBiVzMIFA-mLrSC-85" style="edgeStyle=orthogonalEdgeStyle;rounded=0;orthogonalLoop=1;jettySize=auto;html=1;entryX=-0.086;entryY=0.618;entryDx=0;entryDy=0;entryPerimeter=0;" parent="1" edge="1">
          <mxGeometry relative="1" as="geometry">
            <mxPoint x="10400" y="-540" as="sourcePoint" />
            <mxPoint x="10797.678" y="-340.11199999999997" as="targetPoint" />
            <Array as="points">
              <mxPoint x="10400" y="-540" />
              <mxPoint x="10540" y="-540" />
              <mxPoint x="10540" y="-340" />
            </Array>
          </mxGeometry>
        </mxCell>
        <mxCell id="ByaOrVBiVzMIFA-mLrSC-87" value="" style="endArrow=none;html=1;rounded=0;" parent="1" edge="1">
          <mxGeometry width="50" height="50" relative="1" as="geometry">
            <mxPoint x="10440" y="-518" as="sourcePoint" />
            <mxPoint x="10480" y="-560" as="targetPoint" />
          </mxGeometry>
        </mxCell>
        <mxCell id="ByaOrVBiVzMIFA-mLrSC-88" value="16" style="edgeLabel;html=1;align=center;verticalAlign=middle;resizable=0;points=[];" parent="ByaOrVBiVzMIFA-mLrSC-87" vertex="1" connectable="0">
          <mxGeometry x="-0.067" y="-3" relative="1" as="geometry">
            <mxPoint x="-6" y="-16" as="offset" />
          </mxGeometry>
        </mxCell>
        <mxCell id="ByaOrVBiVzMIFA-mLrSC-89" value="B" style="text;strokeColor=none;fillColor=none;align=left;verticalAlign=middle;spacingLeft=4;spacingRight=4;overflow=hidden;points=[[0,0.5],[1,0.5]];portConstraint=eastwest;rotatable=0;whiteSpace=wrap;html=1;fontSize=32;" parent="1" vertex="1">
          <mxGeometry x="10374" y="-521" width="35" height="44" as="geometry" />
        </mxCell>
        <mxCell id="ByaOrVBiVzMIFA-mLrSC-94" value="" style="endArrow=none;html=1;rounded=0;" parent="1" edge="1">
          <mxGeometry width="50" height="50" relative="1" as="geometry">
            <mxPoint x="10440" y="-477" as="sourcePoint" />
            <mxPoint x="10480" y="-519" as="targetPoint" />
          </mxGeometry>
        </mxCell>
        <mxCell id="ByaOrVBiVzMIFA-mLrSC-95" value="16" style="edgeLabel;html=1;align=center;verticalAlign=middle;resizable=0;points=[];" parent="ByaOrVBiVzMIFA-mLrSC-94" vertex="1" connectable="0">
          <mxGeometry x="-0.067" y="-3" relative="1" as="geometry">
            <mxPoint x="-6" y="-16" as="offset" />
          </mxGeometry>
        </mxCell>
        <mxCell id="ByaOrVBiVzMIFA-mLrSC-96" value="" style="endArrow=classic;html=1;rounded=0;exitX=0.5;exitY=0;exitDx=0;exitDy=0;exitPerimeter=0;" parent="1" source="ByaOrVBiVzMIFA-mLrSC-99" edge="1">
          <mxGeometry width="50" height="50" relative="1" as="geometry">
            <mxPoint x="10550" y="-500" as="sourcePoint" />
            <mxPoint x="10798" y="-500" as="targetPoint" />
          </mxGeometry>
        </mxCell>
        <mxCell id="ByaOrVBiVzMIFA-mLrSC-97" value="" style="endArrow=classic;html=1;rounded=0;exitX=0.5;exitY=0;exitDx=0;exitDy=0;exitPerimeter=0;" parent="1" source="ByaOrVBiVzMIFA-mLrSC-101" edge="1">
          <mxGeometry width="50" height="50" relative="1" as="geometry">
            <mxPoint x="10713" y="-400" as="sourcePoint" />
            <mxPoint x="10798" y="-400" as="targetPoint" />
          </mxGeometry>
        </mxCell>
        <mxCell id="ByaOrVBiVzMIFA-mLrSC-99" value="" style="verticalLabelPosition=bottom;verticalAlign=top;html=1;shape=mxgraph.basic.arc;startAngle=0.4936371943260041;endAngle=0.008113115336112179;rotation=90;" parent="1" vertex="1">
          <mxGeometry x="10530" y="-510" width="20" height="20" as="geometry" />
        </mxCell>
        <mxCell id="ByaOrVBiVzMIFA-mLrSC-100" value="" style="endArrow=none;html=1;rounded=0;entryX=0.494;entryY=0.986;entryDx=0;entryDy=0;entryPerimeter=0;" parent="1" target="ByaOrVBiVzMIFA-mLrSC-99" edge="1">
          <mxGeometry width="50" height="50" relative="1" as="geometry">
            <mxPoint x="10480" y="-500" as="sourcePoint" />
            <mxPoint x="10530" y="-545" as="targetPoint" />
          </mxGeometry>
        </mxCell>
        <mxCell id="ByaOrVBiVzMIFA-mLrSC-101" value="" style="verticalLabelPosition=bottom;verticalAlign=top;html=1;shape=mxgraph.basic.arc;startAngle=0.4936371943260041;endAngle=0.008113115336112179;rotation=90;" parent="1" vertex="1">
          <mxGeometry x="10530" y="-410" width="20" height="20" as="geometry" />
        </mxCell>
        <mxCell id="ByaOrVBiVzMIFA-mLrSC-102" value="" style="endArrow=none;html=1;rounded=0;entryX=0.494;entryY=0.986;entryDx=0;entryDy=0;entryPerimeter=0;" parent="1" target="ByaOrVBiVzMIFA-mLrSC-101" edge="1">
          <mxGeometry width="50" height="50" relative="1" as="geometry">
            <mxPoint x="10480" y="-400" as="sourcePoint" />
            <mxPoint x="10530" y="-445" as="targetPoint" />
          </mxGeometry>
        </mxCell>
        <mxCell id="ByaOrVBiVzMIFA-mLrSC-103" value="" style="verticalLabelPosition=bottom;verticalAlign=top;html=1;shape=mxgraph.basic.arc;startAngle=0.4936371943260041;endAngle=0.008113115336112179;rotation=90;" parent="1" vertex="1">
          <mxGeometry x="10530" y="-310" width="20" height="20" as="geometry" />
        </mxCell>
        <mxCell id="ByaOrVBiVzMIFA-mLrSC-104" value="" style="endArrow=none;html=1;rounded=0;entryX=0.494;entryY=0.986;entryDx=0;entryDy=0;entryPerimeter=0;" parent="1" target="ByaOrVBiVzMIFA-mLrSC-103" edge="1">
          <mxGeometry width="50" height="50" relative="1" as="geometry">
            <mxPoint x="10480" y="-300" as="sourcePoint" />
            <mxPoint x="10530" y="-345" as="targetPoint" />
          </mxGeometry>
        </mxCell>
        <mxCell id="ByaOrVBiVzMIFA-mLrSC-105" style="edgeStyle=orthogonalEdgeStyle;rounded=0;orthogonalLoop=1;jettySize=auto;html=1;entryX=-0.076;entryY=0.55;entryDx=0;entryDy=0;entryPerimeter=0;" parent="1" source="ByaOrVBiVzMIFA-mLrSC-103" target="ByaOrVBiVzMIFA-mLrSC-30" edge="1">
          <mxGeometry relative="1" as="geometry">
            <Array as="points">
              <mxPoint x="10798" y="-300" />
            </Array>
          </mxGeometry>
        </mxCell>
        <mxCell id="ByaOrVBiVzMIFA-mLrSC-108" value="" style="endArrow=classic;html=1;rounded=0;" parent="1" edge="1">
          <mxGeometry width="50" height="50" relative="1" as="geometry">
            <mxPoint x="11060" y="980" as="sourcePoint" />
            <mxPoint x="11240" y="980" as="targetPoint" />
          </mxGeometry>
        </mxCell>
        <mxCell id="ByaOrVBiVzMIFA-mLrSC-109" value="" style="endArrow=none;html=1;rounded=0;" parent="1" edge="1">
          <mxGeometry width="50" height="50" relative="1" as="geometry">
            <mxPoint x="11100" y="1001" as="sourcePoint" />
            <mxPoint x="11140" y="959" as="targetPoint" />
          </mxGeometry>
        </mxCell>
        <mxCell id="ByaOrVBiVzMIFA-mLrSC-110" value="16" style="edgeLabel;html=1;align=center;verticalAlign=middle;resizable=0;points=[];" parent="ByaOrVBiVzMIFA-mLrSC-109" vertex="1" connectable="0">
          <mxGeometry x="-0.067" y="-3" relative="1" as="geometry">
            <mxPoint x="-6" y="-25" as="offset" />
          </mxGeometry>
        </mxCell>
        <mxCell id="ByaOrVBiVzMIFA-mLrSC-111" value="" style="verticalLabelPosition=bottom;shadow=0;dashed=0;align=center;html=1;verticalAlign=top;shape=mxgraph.electrical.logic_gates.logic_gate;operation=or;negating=1;negSize=0.15;" parent="1" vertex="1">
          <mxGeometry x="10785.33" y="145" width="116.67" height="70" as="geometry" />
        </mxCell>
        <mxCell id="ByaOrVBiVzMIFA-mLrSC-112" value="" style="verticalLabelPosition=bottom;shadow=0;dashed=0;align=center;html=1;verticalAlign=top;shape=mxgraph.electrical.logic_gates.logic_gate;operation=or;" parent="1" vertex="1">
          <mxGeometry x="10785.33" y="-55" width="116.67" height="70" as="geometry" />
        </mxCell>
        <mxCell id="ByaOrVBiVzMIFA-mLrSC-113" style="edgeStyle=orthogonalEdgeStyle;rounded=0;orthogonalLoop=1;jettySize=auto;html=1;entryX=0.35;entryY=1.006;entryDx=0;entryDy=0;entryPerimeter=0;" parent="1" source="ByaOrVBiVzMIFA-mLrSC-112" target="ByaOrVBiVzMIFA-mLrSC-1" edge="1">
          <mxGeometry relative="1" as="geometry" />
        </mxCell>
        <mxCell id="ByaOrVBiVzMIFA-mLrSC-114" value="" style="verticalLabelPosition=bottom;shadow=0;dashed=0;align=center;html=1;verticalAlign=top;shape=mxgraph.electrical.logic_gates.logic_gate;operation=and;negating=1;negSize=0.15;" parent="1" vertex="1">
          <mxGeometry x="10777" y="44" width="116.67" height="70" as="geometry" />
        </mxCell>
        <mxCell id="ByaOrVBiVzMIFA-mLrSC-115" style="edgeStyle=orthogonalEdgeStyle;rounded=0;orthogonalLoop=1;jettySize=auto;html=1;entryX=0.411;entryY=0.991;entryDx=0;entryDy=0;entryPerimeter=0;" parent="1" source="ByaOrVBiVzMIFA-mLrSC-114" target="ByaOrVBiVzMIFA-mLrSC-1" edge="1">
          <mxGeometry relative="1" as="geometry" />
        </mxCell>
        <mxCell id="ByaOrVBiVzMIFA-mLrSC-116" style="edgeStyle=orthogonalEdgeStyle;rounded=0;orthogonalLoop=1;jettySize=auto;html=1;entryX=0.472;entryY=0.999;entryDx=0;entryDy=0;entryPerimeter=0;" parent="1" source="ByaOrVBiVzMIFA-mLrSC-111" target="ByaOrVBiVzMIFA-mLrSC-1" edge="1">
          <mxGeometry relative="1" as="geometry" />
        </mxCell>
        <mxCell id="ByaOrVBiVzMIFA-mLrSC-123" style="edgeStyle=orthogonalEdgeStyle;rounded=0;orthogonalLoop=1;jettySize=auto;html=1;entryX=0;entryY=0.25;entryDx=0;entryDy=0;entryPerimeter=0;" parent="1" source="ByaOrVBiVzMIFA-mLrSC-80" target="ByaOrVBiVzMIFA-mLrSC-9" edge="1">
          <mxGeometry relative="1" as="geometry">
            <Array as="points">
              <mxPoint x="10540" y="-540" />
              <mxPoint x="10540" y="-241" />
            </Array>
          </mxGeometry>
        </mxCell>
        <mxCell id="ByaOrVBiVzMIFA-mLrSC-133" value="" style="endArrow=classic;html=1;rounded=0;exitX=0.499;exitY=0.024;exitDx=0;exitDy=0;exitPerimeter=0;entryX=0.196;entryY=0.25;entryDx=0;entryDy=0;entryPerimeter=0;" parent="1" source="ByaOrVBiVzMIFA-mLrSC-135" edge="1">
          <mxGeometry width="50" height="50" relative="1" as="geometry">
            <mxPoint x="10549" y="-197.14" as="sourcePoint" />
            <mxPoint x="10801.5" y="-197.25" as="targetPoint" />
          </mxGeometry>
        </mxCell>
        <mxCell id="ByaOrVBiVzMIFA-mLrSC-135" value="" style="verticalLabelPosition=bottom;verticalAlign=top;html=1;shape=mxgraph.basic.arc;startAngle=0.4936371943260041;endAngle=0.008113115336112179;rotation=90;" parent="1" vertex="1">
          <mxGeometry x="10530" y="-207" width="20" height="20" as="geometry" />
        </mxCell>
        <mxCell id="ByaOrVBiVzMIFA-mLrSC-136" value="" style="verticalLabelPosition=bottom;verticalAlign=top;html=1;shape=mxgraph.basic.arc;startAngle=0.4936371943260041;endAngle=0.008113115336112179;rotation=90;" parent="1" vertex="1">
          <mxGeometry x="10530" y="-109" width="20" height="20" as="geometry" />
        </mxCell>
        <mxCell id="ByaOrVBiVzMIFA-mLrSC-137" value="" style="verticalLabelPosition=bottom;verticalAlign=top;html=1;shape=mxgraph.basic.arc;startAngle=0.4936371943260041;endAngle=0.008113115336112179;rotation=90;" parent="1" vertex="1">
          <mxGeometry x="10530" y="-13" width="20" height="20" as="geometry" />
        </mxCell>
        <mxCell id="ByaOrVBiVzMIFA-mLrSC-140" value="" style="endArrow=none;html=1;rounded=0;entryX=0.494;entryY=0.986;entryDx=0;entryDy=0;entryPerimeter=0;" parent="1" edge="1">
          <mxGeometry width="50" height="50" relative="1" as="geometry">
            <mxPoint x="10480" y="-197" as="sourcePoint" />
            <mxPoint x="10530" y="-197.42" as="targetPoint" />
          </mxGeometry>
        </mxCell>
        <mxCell id="ByaOrVBiVzMIFA-mLrSC-141" value="" style="endArrow=none;html=1;rounded=0;entryX=0.494;entryY=0.986;entryDx=0;entryDy=0;entryPerimeter=0;" parent="1" edge="1">
          <mxGeometry width="50" height="50" relative="1" as="geometry">
            <mxPoint x="10480" y="-99" as="sourcePoint" />
            <mxPoint x="10530" y="-98.99999999999999" as="targetPoint" />
          </mxGeometry>
        </mxCell>
        <mxCell id="ByaOrVBiVzMIFA-mLrSC-142" value="" style="endArrow=none;html=1;rounded=0;entryX=0.494;entryY=0.986;entryDx=0;entryDy=0;entryPerimeter=0;" parent="1" edge="1">
          <mxGeometry width="50" height="50" relative="1" as="geometry">
            <mxPoint x="10480" y="-3" as="sourcePoint" />
            <mxPoint x="10530" y="-3.1699999999999875" as="targetPoint" />
          </mxGeometry>
        </mxCell>
        <mxCell id="ByaOrVBiVzMIFA-mLrSC-143" value="" style="endArrow=classic;html=1;rounded=0;exitX=0.5;exitY=0;exitDx=0;exitDy=0;exitPerimeter=0;entryX=0.204;entryY=0.75;entryDx=0;entryDy=0;entryPerimeter=0;" parent="1" source="ByaOrVBiVzMIFA-mLrSC-144" target="ByaOrVBiVzMIFA-mLrSC-114" edge="1">
          <mxGeometry width="50" height="50" relative="1" as="geometry">
            <mxPoint x="10722" y="97" as="sourcePoint" />
            <mxPoint x="10808.664" y="96.3599999999999" as="targetPoint" />
          </mxGeometry>
        </mxCell>
        <mxCell id="ByaOrVBiVzMIFA-mLrSC-144" value="" style="verticalLabelPosition=bottom;verticalAlign=top;html=1;shape=mxgraph.basic.arc;startAngle=0.4936371943260041;endAngle=0.008113115336112179;rotation=90;" parent="1" vertex="1">
          <mxGeometry x="10531" y="87" width="20" height="20" as="geometry" />
        </mxCell>
        <mxCell id="ByaOrVBiVzMIFA-mLrSC-145" value="" style="endArrow=none;html=1;rounded=0;entryX=0.494;entryY=0.986;entryDx=0;entryDy=0;entryPerimeter=0;" parent="1" edge="1">
          <mxGeometry width="50" height="50" relative="1" as="geometry">
            <mxPoint x="10480" y="97" as="sourcePoint" />
            <mxPoint x="10531" y="97" as="targetPoint" />
          </mxGeometry>
        </mxCell>
        <mxCell id="ByaOrVBiVzMIFA-mLrSC-146" value="" style="endArrow=classic;html=1;rounded=0;exitX=0.5;exitY=0;exitDx=0;exitDy=0;exitPerimeter=0;entryX=0.208;entryY=0.749;entryDx=0;entryDy=0;entryPerimeter=0;" parent="1" target="ByaOrVBiVzMIFA-mLrSC-112" edge="1">
          <mxGeometry width="50" height="50" relative="1" as="geometry">
            <mxPoint x="10550" y="-3" as="sourcePoint" />
            <mxPoint x="10800" y="-3" as="targetPoint" />
          </mxGeometry>
        </mxCell>
        <mxCell id="ByaOrVBiVzMIFA-mLrSC-148" value="" style="endArrow=classic;html=1;rounded=0;exitX=0.5;exitY=0;exitDx=0;exitDy=0;exitPerimeter=0;entryX=0.197;entryY=0.749;entryDx=0;entryDy=0;entryPerimeter=0;" parent="1" target="ByaOrVBiVzMIFA-mLrSC-69" edge="1">
          <mxGeometry width="50" height="50" relative="1" as="geometry">
            <mxPoint x="10550" y="-99.22" as="sourcePoint" />
            <mxPoint x="10790" y="-100" as="targetPoint" />
          </mxGeometry>
        </mxCell>
        <mxCell id="ByaOrVBiVzMIFA-mLrSC-149" style="edgeStyle=orthogonalEdgeStyle;rounded=0;orthogonalLoop=1;jettySize=auto;html=1;entryX=0.2;entryY=0.25;entryDx=0;entryDy=0;entryPerimeter=0;" parent="1" target="ByaOrVBiVzMIFA-mLrSC-69" edge="1">
          <mxGeometry relative="1" as="geometry">
            <mxPoint x="10415" y="-540" as="sourcePoint" />
            <mxPoint x="10801.625" y="-137.6500000000001" as="targetPoint" />
            <Array as="points">
              <mxPoint x="10416" y="-540" />
              <mxPoint x="10540" y="-540" />
              <mxPoint x="10540" y="-137" />
            </Array>
          </mxGeometry>
        </mxCell>
        <mxCell id="ByaOrVBiVzMIFA-mLrSC-150" style="edgeStyle=orthogonalEdgeStyle;rounded=0;orthogonalLoop=1;jettySize=auto;html=1;entryX=0.211;entryY=0.25;entryDx=0;entryDy=0;entryPerimeter=0;" parent="1" target="ByaOrVBiVzMIFA-mLrSC-112" edge="1">
          <mxGeometry relative="1" as="geometry">
            <mxPoint x="10412" y="-540" as="sourcePoint" />
            <mxPoint x="10805.280569999999" y="-37.01999999999998" as="targetPoint" />
            <Array as="points">
              <mxPoint x="10540" y="-540" />
              <mxPoint x="10540" y="-37" />
            </Array>
          </mxGeometry>
        </mxCell>
        <mxCell id="ByaOrVBiVzMIFA-mLrSC-151" style="edgeStyle=orthogonalEdgeStyle;rounded=0;orthogonalLoop=1;jettySize=auto;html=1;entryX=0.2;entryY=0.25;entryDx=0;entryDy=0;entryPerimeter=0;" parent="1" source="ByaOrVBiVzMIFA-mLrSC-80" target="ByaOrVBiVzMIFA-mLrSC-114" edge="1">
          <mxGeometry relative="1" as="geometry">
            <Array as="points">
              <mxPoint x="10540" y="-540" />
              <mxPoint x="10540" y="62" />
            </Array>
          </mxGeometry>
        </mxCell>
        <mxCell id="ByaOrVBiVzMIFA-mLrSC-154" value="" style="endArrow=none;html=1;rounded=0;" parent="1" edge="1">
          <mxGeometry width="50" height="50" relative="1" as="geometry">
            <mxPoint x="10415" y="-500" as="sourcePoint" />
            <mxPoint x="10400" y="-500" as="targetPoint" />
            <Array as="points">
              <mxPoint x="10405" y="-500" />
            </Array>
          </mxGeometry>
        </mxCell>
        <mxCell id="ByaOrVBiVzMIFA-mLrSC-158" value="" style="endArrow=none;dashed=1;html=1;rounded=0;" parent="1" edge="1">
          <mxGeometry width="50" height="50" relative="1" as="geometry">
            <mxPoint x="10360" y="-480" as="sourcePoint" />
            <mxPoint x="10360" y="-480" as="targetPoint" />
            <Array as="points">
              <mxPoint x="10420" y="-480" />
              <mxPoint x="10420" y="-560" />
              <mxPoint x="10360" y="-560" />
            </Array>
          </mxGeometry>
        </mxCell>
        <mxCell id="ByaOrVBiVzMIFA-mLrSC-160" value="" style="endArrow=classic;html=1;rounded=0;entryX=0.989;entryY=0.124;entryDx=0;entryDy=0;entryPerimeter=0;" parent="1" edge="1">
          <mxGeometry width="50" height="50" relative="1" as="geometry">
            <mxPoint x="11340" y="1100" as="sourcePoint" />
            <mxPoint x="11380.16" y="1023.0050000000001" as="targetPoint" />
            <Array as="points">
              <mxPoint x="11360" y="1100" />
              <mxPoint x="11380" y="1100" />
            </Array>
          </mxGeometry>
        </mxCell>
        <mxCell id="ByaOrVBiVzMIFA-mLrSC-161" value="" style="endArrow=classic;html=1;rounded=0;entryX=0.993;entryY=0.373;entryDx=0;entryDy=0;entryPerimeter=0;" parent="1" edge="1">
          <mxGeometry width="50" height="50" relative="1" as="geometry">
            <mxPoint x="11300" y="1100" as="sourcePoint" />
            <mxPoint x="11340.32" y="1030.185" as="targetPoint" />
            <Array as="points">
              <mxPoint x="11340" y="1100" />
            </Array>
          </mxGeometry>
        </mxCell>
        <mxCell id="ByaOrVBiVzMIFA-mLrSC-162" value="" style="endArrow=classic;html=1;rounded=0;entryX=0.996;entryY=0.618;entryDx=0;entryDy=0;entryPerimeter=0;" parent="1" edge="1">
          <mxGeometry width="50" height="50" relative="1" as="geometry">
            <mxPoint x="11299" y="1100" as="sourcePoint" />
            <mxPoint x="11300.119999999999" y="1034.8200000000002" as="targetPoint" />
            <Array as="points" />
          </mxGeometry>
        </mxCell>
        <mxCell id="ByaOrVBiVzMIFA-mLrSC-163" value="" style="endArrow=classic;html=1;rounded=0;" parent="1" edge="1">
          <mxGeometry width="50" height="50" relative="1" as="geometry">
            <mxPoint x="11300" y="1100" as="sourcePoint" />
            <mxPoint x="11260" y="1041" as="targetPoint" />
            <Array as="points">
              <mxPoint x="11260" y="1100" />
            </Array>
          </mxGeometry>
        </mxCell>
        <mxCell id="ByaOrVBiVzMIFA-mLrSC-164" value="" style="endArrow=none;html=1;rounded=0;" parent="1" edge="1">
          <mxGeometry width="50" height="50" relative="1" as="geometry">
            <mxPoint x="11320" y="1100" as="sourcePoint" />
            <mxPoint x="11320" y="1122" as="targetPoint" />
          </mxGeometry>
        </mxCell>
        <mxCell id="ByaOrVBiVzMIFA-mLrSC-165" value="ALU_FUN" style="text;strokeColor=none;fillColor=none;align=left;verticalAlign=middle;spacingLeft=4;spacingRight=4;overflow=hidden;points=[[0,0.5],[1,0.5]];portConstraint=eastwest;rotatable=0;whiteSpace=wrap;html=1;fontSize=17;strokeWidth=2;" parent="1" vertex="1">
          <mxGeometry x="11275" y="1115" width="100.5" height="50" as="geometry" />
        </mxCell>
        <mxCell id="ByaOrVBiVzMIFA-mLrSC-166" value="" style="endArrow=none;dashed=1;html=1;rounded=0;" parent="1" edge="1">
          <mxGeometry width="50" height="50" relative="1" as="geometry">
            <mxPoint x="11260" y="1160" as="sourcePoint" />
            <mxPoint x="11260" y="1160" as="targetPoint" />
            <Array as="points">
              <mxPoint x="11380" y="1160" />
              <mxPoint x="11380" y="1120" />
              <mxPoint x="11260" y="1120" />
              <mxPoint x="11260" y="1140" />
            </Array>
          </mxGeometry>
        </mxCell>
        <mxCell id="ByaOrVBiVzMIFA-mLrSC-178" style="edgeStyle=orthogonalEdgeStyle;rounded=0;orthogonalLoop=1;jettySize=auto;html=1;" parent="1" edge="1">
          <mxGeometry relative="1" as="geometry">
            <mxPoint x="11820" y="200" as="targetPoint" />
            <mxPoint x="11675" y="200" as="sourcePoint" />
          </mxGeometry>
        </mxCell>
        <mxCell id="ByaOrVBiVzMIFA-mLrSC-170" value="" style="rounded=0;whiteSpace=wrap;html=1;" parent="1" vertex="1">
          <mxGeometry x="11620" y="160" width="60" height="80" as="geometry" />
        </mxCell>
        <mxCell id="ByaOrVBiVzMIFA-mLrSC-172" value="" style="verticalLabelPosition=bottom;verticalAlign=top;html=1;shape=mxgraph.basic.acute_triangle;dx=0.5;direction=south;" parent="1" vertex="1">
          <mxGeometry x="11620" y="215" width="10" height="10" as="geometry" />
        </mxCell>
        <mxCell id="ByaOrVBiVzMIFA-mLrSC-177" value="" style="endArrow=none;dashed=1;html=1;rounded=0;" parent="1" edge="1">
          <mxGeometry width="50" height="50" relative="1" as="geometry">
            <mxPoint x="11820" y="220" as="sourcePoint" />
            <mxPoint x="11820" y="220" as="targetPoint" />
            <Array as="points">
              <mxPoint x="11940" y="220" />
              <mxPoint x="11940" y="180" />
              <mxPoint x="11820" y="180" />
              <mxPoint x="11820" y="200" />
            </Array>
          </mxGeometry>
        </mxCell>
        <mxCell id="ByaOrVBiVzMIFA-mLrSC-180" value="CLK" style="text;strokeColor=none;fillColor=none;align=left;verticalAlign=middle;spacingLeft=4;spacingRight=4;overflow=hidden;points=[[0,0.5],[1,0.5]];portConstraint=eastwest;rotatable=0;whiteSpace=wrap;html=1;fontSize=22;" parent="1" vertex="1">
          <mxGeometry x="11462" y="205" width="55" height="25" as="geometry" />
        </mxCell>
        <mxCell id="ByaOrVBiVzMIFA-mLrSC-181" value="" style="endArrow=none;dashed=1;html=1;rounded=0;" parent="1" edge="1">
          <mxGeometry width="50" height="50" relative="1" as="geometry">
            <mxPoint x="11460" y="240" as="sourcePoint" />
            <mxPoint x="11460" y="240" as="targetPoint" />
            <Array as="points">
              <mxPoint x="11520" y="240" />
              <mxPoint x="11520" y="200" />
              <mxPoint x="11460" y="200" />
            </Array>
          </mxGeometry>
        </mxCell>
        <mxCell id="ByaOrVBiVzMIFA-mLrSC-184" style="edgeStyle=orthogonalEdgeStyle;rounded=0;orthogonalLoop=1;jettySize=auto;html=1;entryX=0.5;entryY=1.225;entryDx=0;entryDy=0;entryPerimeter=0;" parent="1" source="ByaOrVBiVzMIFA-mLrSC-180" target="ByaOrVBiVzMIFA-mLrSC-172" edge="1">
          <mxGeometry relative="1" as="geometry">
            <Array as="points">
              <mxPoint x="11535" y="220" />
              <mxPoint x="11535" y="220" />
            </Array>
          </mxGeometry>
        </mxCell>
        <mxCell id="ByaOrVBiVzMIFA-mLrSC-185" value="" style="whiteSpace=wrap;html=1;aspect=fixed;" parent="1" vertex="1">
          <mxGeometry x="10795" y="441" width="80" height="80" as="geometry" />
        </mxCell>
        <mxCell id="ByaOrVBiVzMIFA-mLrSC-186" value="A" style="text;strokeColor=none;fillColor=none;align=left;verticalAlign=middle;spacingLeft=4;spacingRight=4;overflow=hidden;points=[[0,0.5],[1,0.5]];portConstraint=eastwest;rotatable=0;whiteSpace=wrap;html=1;fontSize=8;" parent="1" vertex="1">
          <mxGeometry x="10795" y="453" width="27" height="16" as="geometry" />
        </mxCell>
        <mxCell id="ByaOrVBiVzMIFA-mLrSC-187" value="B" style="text;strokeColor=none;fillColor=none;align=left;verticalAlign=middle;spacingLeft=4;spacingRight=4;overflow=hidden;points=[[0,0.5],[1,0.5]];portConstraint=eastwest;rotatable=0;whiteSpace=wrap;html=1;fontSize=8;" parent="1" vertex="1">
          <mxGeometry x="10795" y="492" width="28" height="16" as="geometry" />
        </mxCell>
        <mxCell id="ByaOrVBiVzMIFA-mLrSC-198" style="edgeStyle=orthogonalEdgeStyle;rounded=0;orthogonalLoop=1;jettySize=auto;html=1;" parent="1" source="ByaOrVBiVzMIFA-mLrSC-188" target="ByaOrVBiVzMIFA-mLrSC-197" edge="1">
          <mxGeometry relative="1" as="geometry">
            <mxPoint x="10995" y="520.9999999999998" as="targetPoint" />
            <mxPoint x="10895" y="481" as="sourcePoint" />
            <Array as="points">
              <mxPoint x="10915" y="481" />
              <mxPoint x="10915" y="521" />
              <mxPoint x="10975" y="521" />
            </Array>
          </mxGeometry>
        </mxCell>
        <mxCell id="ByaOrVBiVzMIFA-mLrSC-188" value="A=B?" style="text;strokeColor=none;fillColor=none;align=left;verticalAlign=middle;spacingLeft=4;spacingRight=4;overflow=hidden;points=[[0,0.5],[1,0.5]];portConstraint=eastwest;rotatable=0;whiteSpace=wrap;html=1;fontSize=8;" parent="1" vertex="1">
          <mxGeometry x="10844" y="472" width="31" height="16" as="geometry" />
        </mxCell>
        <mxCell id="ByaOrVBiVzMIFA-mLrSC-189" value="" style="whiteSpace=wrap;html=1;aspect=fixed;" parent="1" vertex="1">
          <mxGeometry x="10795" y="541" width="80" height="80" as="geometry" />
        </mxCell>
        <mxCell id="ByaOrVBiVzMIFA-mLrSC-193" value="" style="whiteSpace=wrap;html=1;aspect=fixed;" parent="1" vertex="1">
          <mxGeometry x="10795" y="641" width="80" height="80" as="geometry" />
        </mxCell>
        <mxCell id="ByaOrVBiVzMIFA-mLrSC-197" value="" style="shape=trapezoid;perimeter=trapezoidPerimeter;whiteSpace=wrap;html=1;fixedSize=1;direction=south;" parent="1" vertex="1">
          <mxGeometry x="10956" y="443" width="39" height="76" as="geometry" />
        </mxCell>
        <mxCell id="ByaOrVBiVzMIFA-mLrSC-200" value="=" style="text;strokeColor=none;fillColor=none;align=left;verticalAlign=middle;spacingLeft=4;spacingRight=4;overflow=hidden;points=[[0,0.5],[1,0.5]];portConstraint=eastwest;rotatable=0;whiteSpace=wrap;html=1;" parent="1" vertex="1">
          <mxGeometry x="10826" y="471" width="20" height="20" as="geometry" />
        </mxCell>
        <mxCell id="ByaOrVBiVzMIFA-mLrSC-201" value="MUX" style="text;strokeColor=none;fillColor=none;align=left;verticalAlign=middle;spacingLeft=4;spacingRight=4;overflow=hidden;points=[[0,0.5],[1,0.5]];portConstraint=eastwest;rotatable=0;whiteSpace=wrap;html=1;fontSize=8;" parent="1" vertex="1">
          <mxGeometry x="10959.5" y="476" width="31" height="16" as="geometry" />
        </mxCell>
        <mxCell id="ByaOrVBiVzMIFA-mLrSC-211" value="" style="whiteSpace=wrap;html=1;aspect=fixed;" parent="1" vertex="1">
          <mxGeometry x="10795" y="742" width="80" height="80" as="geometry" />
        </mxCell>
        <mxCell id="ByaOrVBiVzMIFA-mLrSC-215" value="" style="whiteSpace=wrap;html=1;aspect=fixed;" parent="1" vertex="1">
          <mxGeometry x="10795" y="838" width="80" height="80" as="geometry" />
        </mxCell>
        <mxCell id="ByaOrVBiVzMIFA-mLrSC-222" style="edgeStyle=orthogonalEdgeStyle;rounded=0;orthogonalLoop=1;jettySize=auto;html=1;exitX=0.694;exitY=0.5;exitDx=0;exitDy=0;exitPerimeter=0;" parent="1" edge="1">
          <mxGeometry relative="1" as="geometry">
            <mxPoint x="11240" y="881" as="targetPoint" />
            <mxPoint x="10870.006" y="881" as="sourcePoint" />
          </mxGeometry>
        </mxCell>
        <mxCell id="ByaOrVBiVzMIFA-mLrSC-221" style="edgeStyle=orthogonalEdgeStyle;rounded=0;orthogonalLoop=1;jettySize=auto;html=1;entryX=0.89;entryY=1.006;entryDx=0;entryDy=0;entryPerimeter=0;exitX=0.704;exitY=0.219;exitDx=0;exitDy=0;exitPerimeter=0;" parent="1" edge="1">
          <mxGeometry relative="1" as="geometry">
            <mxPoint x="10870.496" y="780.5039999999997" as="sourcePoint" />
            <mxPoint x="11239.04" y="781.0500000000002" as="targetPoint" />
            <Array as="points">
              <mxPoint x="10967" y="781" />
            </Array>
          </mxGeometry>
        </mxCell>
        <mxCell id="ByaOrVBiVzMIFA-mLrSC-223" style="edgeStyle=orthogonalEdgeStyle;rounded=0;orthogonalLoop=1;jettySize=auto;html=1;entryX=0.565;entryY=1.002;entryDx=0;entryDy=0;entryPerimeter=0;" parent="1" edge="1">
          <mxGeometry relative="1" as="geometry">
            <mxPoint x="10990" y="480" as="sourcePoint" />
            <mxPoint x="11239.68" y="479.9249999999995" as="targetPoint" />
          </mxGeometry>
        </mxCell>
        <mxCell id="ByaOrVBiVzMIFA-mLrSC-224" style="edgeStyle=orthogonalEdgeStyle;rounded=0;orthogonalLoop=1;jettySize=auto;html=1;" parent="1" target="ByaOrVBiVzMIFA-mLrSC-225" edge="1">
          <mxGeometry relative="1" as="geometry">
            <mxPoint x="10995" y="620.9999999999998" as="targetPoint" />
            <mxPoint x="10875" y="581" as="sourcePoint" />
            <Array as="points">
              <mxPoint x="10915" y="581" />
              <mxPoint x="10915" y="621" />
              <mxPoint x="10975" y="621" />
            </Array>
          </mxGeometry>
        </mxCell>
        <mxCell id="ByaOrVBiVzMIFA-mLrSC-225" value="" style="shape=trapezoid;perimeter=trapezoidPerimeter;whiteSpace=wrap;html=1;fixedSize=1;direction=south;" parent="1" vertex="1">
          <mxGeometry x="10956" y="543" width="39" height="76" as="geometry" />
        </mxCell>
        <mxCell id="ByaOrVBiVzMIFA-mLrSC-226" value="MUX" style="text;strokeColor=none;fillColor=none;align=left;verticalAlign=middle;spacingLeft=4;spacingRight=4;overflow=hidden;points=[[0,0.5],[1,0.5]];portConstraint=eastwest;rotatable=0;whiteSpace=wrap;html=1;fontSize=8;" parent="1" vertex="1">
          <mxGeometry x="10959.5" y="576" width="31" height="16" as="geometry" />
        </mxCell>
        <mxCell id="ByaOrVBiVzMIFA-mLrSC-227" style="edgeStyle=orthogonalEdgeStyle;rounded=0;orthogonalLoop=1;jettySize=auto;html=1;entryX=0.565;entryY=1.002;entryDx=0;entryDy=0;entryPerimeter=0;exitX=0.507;exitY=0.019;exitDx=0;exitDy=0;exitPerimeter=0;" parent="1" edge="1">
          <mxGeometry relative="1" as="geometry">
            <mxPoint x="10989.259" y="580.5319999999999" as="sourcePoint" />
            <mxPoint x="11239.68" y="579.9249999999995" as="targetPoint" />
          </mxGeometry>
        </mxCell>
        <mxCell id="ByaOrVBiVzMIFA-mLrSC-228" style="edgeStyle=orthogonalEdgeStyle;rounded=0;orthogonalLoop=1;jettySize=auto;html=1;" parent="1" target="ByaOrVBiVzMIFA-mLrSC-229" edge="1">
          <mxGeometry relative="1" as="geometry">
            <mxPoint x="10995" y="720.9999999999998" as="targetPoint" />
            <mxPoint x="10875" y="681" as="sourcePoint" />
            <Array as="points">
              <mxPoint x="10915" y="681" />
              <mxPoint x="10915" y="721" />
              <mxPoint x="10975" y="721" />
            </Array>
          </mxGeometry>
        </mxCell>
        <mxCell id="ByaOrVBiVzMIFA-mLrSC-229" value="" style="shape=trapezoid;perimeter=trapezoidPerimeter;whiteSpace=wrap;html=1;fixedSize=1;direction=south;" parent="1" vertex="1">
          <mxGeometry x="10956" y="643" width="39" height="76" as="geometry" />
        </mxCell>
        <mxCell id="ByaOrVBiVzMIFA-mLrSC-230" value="MUX" style="text;strokeColor=none;fillColor=none;align=left;verticalAlign=middle;spacingLeft=4;spacingRight=4;overflow=hidden;points=[[0,0.5],[1,0.5]];portConstraint=eastwest;rotatable=0;whiteSpace=wrap;html=1;fontSize=8;" parent="1" vertex="1">
          <mxGeometry x="10959.5" y="676" width="31" height="16" as="geometry" />
        </mxCell>
        <mxCell id="ByaOrVBiVzMIFA-mLrSC-232" value="A" style="text;strokeColor=none;fillColor=none;align=left;verticalAlign=middle;spacingLeft=4;spacingRight=4;overflow=hidden;points=[[0,0.5],[1,0.5]];portConstraint=eastwest;rotatable=0;whiteSpace=wrap;html=1;fontSize=8;" parent="1" vertex="1">
          <mxGeometry x="10803.5" y="-145" width="26" height="16" as="geometry" />
        </mxCell>
        <mxCell id="ByaOrVBiVzMIFA-mLrSC-233" value="A" style="text;strokeColor=none;fillColor=none;align=left;verticalAlign=middle;spacingLeft=4;spacingRight=4;overflow=hidden;points=[[0,0.5],[1,0.5]];portConstraint=eastwest;rotatable=0;whiteSpace=wrap;html=1;fontSize=8;" parent="1" vertex="1">
          <mxGeometry x="10815" y="-44" width="26" height="16" as="geometry" />
        </mxCell>
        <mxCell id="ByaOrVBiVzMIFA-mLrSC-234" value="A" style="text;strokeColor=none;fillColor=none;align=left;verticalAlign=middle;spacingLeft=4;spacingRight=4;overflow=hidden;points=[[0,0.5],[1,0.5]];portConstraint=eastwest;rotatable=0;whiteSpace=wrap;html=1;fontSize=8;" parent="1" vertex="1">
          <mxGeometry x="10805" y="53" width="26" height="16" as="geometry" />
        </mxCell>
        <mxCell id="ByaOrVBiVzMIFA-mLrSC-235" value="A" style="text;strokeColor=none;fillColor=none;align=left;verticalAlign=middle;spacingLeft=4;spacingRight=4;overflow=hidden;points=[[0,0.5],[1,0.5]];portConstraint=eastwest;rotatable=0;whiteSpace=wrap;html=1;fontSize=8;" parent="1" vertex="1">
          <mxGeometry x="10815" y="156" width="26" height="16" as="geometry" />
        </mxCell>
        <mxCell id="ByaOrVBiVzMIFA-mLrSC-236" value="B" style="text;strokeColor=none;fillColor=none;align=left;verticalAlign=middle;spacingLeft=4;spacingRight=4;overflow=hidden;points=[[0,0.5],[1,0.5]];portConstraint=eastwest;rotatable=0;whiteSpace=wrap;html=1;fontSize=8;" parent="1" vertex="1">
          <mxGeometry x="10815" y="-12" width="28" height="16" as="geometry" />
        </mxCell>
        <mxCell id="ByaOrVBiVzMIFA-mLrSC-237" value="B" style="text;strokeColor=none;fillColor=none;align=left;verticalAlign=middle;spacingLeft=4;spacingRight=4;overflow=hidden;points=[[0,0.5],[1,0.5]];portConstraint=eastwest;rotatable=0;whiteSpace=wrap;html=1;fontSize=8;" parent="1" vertex="1">
          <mxGeometry x="10815" y="185" width="28" height="16" as="geometry" />
        </mxCell>
        <mxCell id="ByaOrVBiVzMIFA-mLrSC-313" style="edgeStyle=orthogonalEdgeStyle;rounded=0;orthogonalLoop=1;jettySize=auto;html=1;" parent="1" source="ByaOrVBiVzMIFA-mLrSC-238" edge="1">
          <mxGeometry relative="1" as="geometry">
            <mxPoint x="11235" y="380" as="targetPoint" />
          </mxGeometry>
        </mxCell>
        <mxCell id="ByaOrVBiVzMIFA-mLrSC-238" value="" style="verticalLabelPosition=bottom;shadow=0;dashed=0;align=center;html=1;verticalAlign=top;shape=mxgraph.electrical.logic_gates.logic_gate;operation=xor;negating=1;negSize=0.15;" parent="1" vertex="1">
          <mxGeometry x="10780.67" y="345" width="116.66" height="70" as="geometry" />
        </mxCell>
        <mxCell id="ByaOrVBiVzMIFA-mLrSC-239" value="" style="verticalLabelPosition=bottom;shadow=0;dashed=0;align=center;html=1;verticalAlign=top;shape=mxgraph.electrical.logic_gates.logic_gate;operation=xor;" parent="1" vertex="1">
          <mxGeometry x="10785" y="246" width="121.67" height="73" as="geometry" />
        </mxCell>
        <mxCell id="ByaOrVBiVzMIFA-mLrSC-240" style="edgeStyle=orthogonalEdgeStyle;rounded=0;orthogonalLoop=1;jettySize=auto;html=1;entryX=0.165;entryY=0.251;entryDx=0;entryDy=0;entryPerimeter=0;" parent="1" target="ByaOrVBiVzMIFA-mLrSC-239" edge="1">
          <mxGeometry relative="1" as="geometry">
            <mxPoint x="10423" y="-540" as="sourcePoint" />
            <mxPoint x="10799" y="264.49" as="targetPoint" />
            <Array as="points">
              <mxPoint x="10540" y="-540" />
              <mxPoint x="10540" y="264" />
            </Array>
          </mxGeometry>
        </mxCell>
        <mxCell id="ByaOrVBiVzMIFA-mLrSC-241" value="A" style="text;strokeColor=none;fillColor=none;align=left;verticalAlign=middle;spacingLeft=4;spacingRight=4;overflow=hidden;points=[[0,0.5],[1,0.5]];portConstraint=eastwest;rotatable=0;whiteSpace=wrap;html=1;fontSize=8;" parent="1" vertex="1">
          <mxGeometry x="10815" y="255" width="26" height="16" as="geometry" />
        </mxCell>
        <mxCell id="ByaOrVBiVzMIFA-mLrSC-242" value="A" style="text;strokeColor=none;fillColor=none;align=left;verticalAlign=middle;spacingLeft=4;spacingRight=4;overflow=hidden;points=[[0,0.5],[1,0.5]];portConstraint=eastwest;rotatable=0;whiteSpace=wrap;html=1;fontSize=8;" parent="1" vertex="1">
          <mxGeometry x="10810" y="354" width="26" height="16" as="geometry" />
        </mxCell>
        <mxCell id="ByaOrVBiVzMIFA-mLrSC-243" value="B" style="text;strokeColor=none;fillColor=none;align=left;verticalAlign=middle;spacingLeft=4;spacingRight=4;overflow=hidden;points=[[0,0.5],[1,0.5]];portConstraint=eastwest;rotatable=0;whiteSpace=wrap;html=1;fontSize=8;" parent="1" vertex="1">
          <mxGeometry x="10814" y="293" width="28" height="16" as="geometry" />
        </mxCell>
        <mxCell id="ByaOrVBiVzMIFA-mLrSC-244" value="B" style="text;strokeColor=none;fillColor=none;align=left;verticalAlign=middle;spacingLeft=4;spacingRight=4;overflow=hidden;points=[[0,0.5],[1,0.5]];portConstraint=eastwest;rotatable=0;whiteSpace=wrap;html=1;fontSize=8;" parent="1" vertex="1">
          <mxGeometry x="10811" y="390" width="28" height="16" as="geometry" />
        </mxCell>
        <mxCell id="ByaOrVBiVzMIFA-mLrSC-245" value="A" style="text;strokeColor=none;fillColor=none;align=left;verticalAlign=middle;spacingLeft=4;spacingRight=4;overflow=hidden;points=[[0,0.5],[1,0.5]];portConstraint=eastwest;rotatable=0;whiteSpace=wrap;html=1;fontSize=8;" parent="1" vertex="1">
          <mxGeometry x="10795" y="550" width="27" height="16" as="geometry" />
        </mxCell>
        <mxCell id="ByaOrVBiVzMIFA-mLrSC-246" value="B" style="text;strokeColor=none;fillColor=none;align=left;verticalAlign=middle;spacingLeft=4;spacingRight=4;overflow=hidden;points=[[0,0.5],[1,0.5]];portConstraint=eastwest;rotatable=0;whiteSpace=wrap;html=1;fontSize=8;" parent="1" vertex="1">
          <mxGeometry x="10795" y="589" width="28" height="16" as="geometry" />
        </mxCell>
        <mxCell id="ByaOrVBiVzMIFA-mLrSC-247" value="&amp;gt;" style="text;strokeColor=none;fillColor=none;align=left;verticalAlign=middle;spacingLeft=4;spacingRight=4;overflow=hidden;points=[[0,0.5],[1,0.5]];portConstraint=eastwest;rotatable=0;whiteSpace=wrap;html=1;" parent="1" vertex="1">
          <mxGeometry x="10826" y="568" width="20" height="20" as="geometry" />
        </mxCell>
        <mxCell id="ByaOrVBiVzMIFA-mLrSC-248" value="A&amp;gt;B?" style="text;strokeColor=none;fillColor=none;align=left;verticalAlign=middle;spacingLeft=4;spacingRight=4;overflow=hidden;points=[[0,0.5],[1,0.5]];portConstraint=eastwest;rotatable=0;whiteSpace=wrap;html=1;fontSize=8;" parent="1" vertex="1">
          <mxGeometry x="10844" y="569" width="31" height="16" as="geometry" />
        </mxCell>
        <mxCell id="ByaOrVBiVzMIFA-mLrSC-249" value="A" style="text;strokeColor=none;fillColor=none;align=left;verticalAlign=middle;spacingLeft=4;spacingRight=4;overflow=hidden;points=[[0,0.5],[1,0.5]];portConstraint=eastwest;rotatable=0;whiteSpace=wrap;html=1;fontSize=8;" parent="1" vertex="1">
          <mxGeometry x="10796" y="653.5" width="27" height="16" as="geometry" />
        </mxCell>
        <mxCell id="ByaOrVBiVzMIFA-mLrSC-250" value="B" style="text;strokeColor=none;fillColor=none;align=left;verticalAlign=middle;spacingLeft=4;spacingRight=4;overflow=hidden;points=[[0,0.5],[1,0.5]];portConstraint=eastwest;rotatable=0;whiteSpace=wrap;html=1;fontSize=8;" parent="1" vertex="1">
          <mxGeometry x="10796" y="692.5" width="28" height="16" as="geometry" />
        </mxCell>
        <mxCell id="ByaOrVBiVzMIFA-mLrSC-251" value="&amp;lt;" style="text;strokeColor=none;fillColor=none;align=left;verticalAlign=middle;spacingLeft=4;spacingRight=4;overflow=hidden;points=[[0,0.5],[1,0.5]];portConstraint=eastwest;rotatable=0;whiteSpace=wrap;html=1;" parent="1" vertex="1">
          <mxGeometry x="10827" y="671.5" width="20" height="20" as="geometry" />
        </mxCell>
        <mxCell id="ByaOrVBiVzMIFA-mLrSC-252" value="A&amp;lt;B?" style="text;strokeColor=none;fillColor=none;align=left;verticalAlign=middle;spacingLeft=4;spacingRight=4;overflow=hidden;points=[[0,0.5],[1,0.5]];portConstraint=eastwest;rotatable=0;whiteSpace=wrap;html=1;fontSize=8;" parent="1" vertex="1">
          <mxGeometry x="10845" y="672.5" width="31" height="16" as="geometry" />
        </mxCell>
        <mxCell id="ByaOrVBiVzMIFA-mLrSC-253" value="A" style="text;strokeColor=none;fillColor=none;align=left;verticalAlign=middle;spacingLeft=4;spacingRight=4;overflow=hidden;points=[[0,0.5],[1,0.5]];portConstraint=eastwest;rotatable=0;whiteSpace=wrap;html=1;fontSize=8;" parent="1" vertex="1">
          <mxGeometry x="10794" y="754" width="27" height="16" as="geometry" />
        </mxCell>
        <mxCell id="ByaOrVBiVzMIFA-mLrSC-254" value="1" style="text;strokeColor=none;fillColor=none;align=left;verticalAlign=middle;spacingLeft=4;spacingRight=4;overflow=hidden;points=[[0,0.5],[1,0.5]];portConstraint=eastwest;rotatable=0;whiteSpace=wrap;html=1;fontSize=8;" parent="1" vertex="1">
          <mxGeometry x="10794" y="793" width="28" height="16" as="geometry" />
        </mxCell>
        <mxCell id="ByaOrVBiVzMIFA-mLrSC-255" value="&amp;gt;&amp;gt;" style="text;strokeColor=none;fillColor=none;align=left;verticalAlign=middle;spacingLeft=4;spacingRight=4;overflow=hidden;points=[[0,0.5],[1,0.5]];portConstraint=eastwest;rotatable=0;whiteSpace=wrap;html=1;" parent="1" vertex="1">
          <mxGeometry x="10819" y="772" width="30" height="20" as="geometry" />
        </mxCell>
        <mxCell id="ByaOrVBiVzMIFA-mLrSC-256" value="A&amp;gt;&amp;gt;1" style="text;strokeColor=none;fillColor=none;align=left;verticalAlign=middle;spacingLeft=4;spacingRight=4;overflow=hidden;points=[[0,0.5],[1,0.5]];portConstraint=eastwest;rotatable=0;whiteSpace=wrap;html=1;fontSize=8;" parent="1" vertex="1">
          <mxGeometry x="10843" y="773" width="31" height="16" as="geometry" />
        </mxCell>
        <mxCell id="ByaOrVBiVzMIFA-mLrSC-257" value="A" style="text;strokeColor=none;fillColor=none;align=left;verticalAlign=middle;spacingLeft=4;spacingRight=4;overflow=hidden;points=[[0,0.5],[1,0.5]];portConstraint=eastwest;rotatable=0;whiteSpace=wrap;html=1;fontSize=8;" parent="1" vertex="1">
          <mxGeometry x="10795" y="852.5" width="27" height="16" as="geometry" />
        </mxCell>
        <mxCell id="ByaOrVBiVzMIFA-mLrSC-258" value="&amp;lt;&amp;lt;" style="text;strokeColor=none;fillColor=none;align=left;verticalAlign=middle;spacingLeft=4;spacingRight=4;overflow=hidden;points=[[0,0.5],[1,0.5]];portConstraint=eastwest;rotatable=0;whiteSpace=wrap;html=1;" parent="1" vertex="1">
          <mxGeometry x="10820" y="870.5" width="30" height="20" as="geometry" />
        </mxCell>
        <mxCell id="ByaOrVBiVzMIFA-mLrSC-259" value="A&amp;lt;&amp;lt;1" style="text;strokeColor=none;fillColor=none;align=left;verticalAlign=middle;spacingLeft=4;spacingRight=4;overflow=hidden;points=[[0,0.5],[1,0.5]];portConstraint=eastwest;rotatable=0;whiteSpace=wrap;html=1;fontSize=8;" parent="1" vertex="1">
          <mxGeometry x="10844" y="871.5" width="31" height="16" as="geometry" />
        </mxCell>
        <mxCell id="ByaOrVBiVzMIFA-mLrSC-260" value="1" style="text;strokeColor=none;fillColor=none;align=left;verticalAlign=middle;spacingLeft=4;spacingRight=4;overflow=hidden;points=[[0,0.5],[1,0.5]];portConstraint=eastwest;rotatable=0;whiteSpace=wrap;html=1;fontSize=8;" parent="1" vertex="1">
          <mxGeometry x="10795" y="891.5" width="28" height="16" as="geometry" />
        </mxCell>
        <mxCell id="ByaOrVBiVzMIFA-mLrSC-265" value="" style="verticalLabelPosition=bottom;verticalAlign=top;html=1;shape=mxgraph.basic.arc;startAngle=0.4936371943260041;endAngle=0.008113115336112179;rotation=90;" parent="1" vertex="1">
          <mxGeometry x="10529" y="187" width="20" height="20" as="geometry" />
        </mxCell>
        <mxCell id="ByaOrVBiVzMIFA-mLrSC-266" value="" style="endArrow=none;html=1;rounded=0;entryX=0.494;entryY=0.986;entryDx=0;entryDy=0;entryPerimeter=0;" parent="1" target="ByaOrVBiVzMIFA-mLrSC-265" edge="1">
          <mxGeometry width="50" height="50" relative="1" as="geometry">
            <mxPoint x="10479" y="197" as="sourcePoint" />
            <mxPoint x="10529" y="152" as="targetPoint" />
          </mxGeometry>
        </mxCell>
        <mxCell id="ByaOrVBiVzMIFA-mLrSC-267" style="edgeStyle=orthogonalEdgeStyle;rounded=0;orthogonalLoop=1;jettySize=auto;html=1;entryX=0.201;entryY=0.748;entryDx=0;entryDy=0;entryPerimeter=0;" parent="1" source="ByaOrVBiVzMIFA-mLrSC-265" target="ByaOrVBiVzMIFA-mLrSC-111" edge="1">
          <mxGeometry relative="1" as="geometry">
            <mxPoint x="10808" y="197" as="targetPoint" />
            <Array as="points">
              <mxPoint x="10797" y="197" />
            </Array>
          </mxGeometry>
        </mxCell>
        <mxCell id="ByaOrVBiVzMIFA-mLrSC-268" value="" style="endArrow=classic;html=1;rounded=0;exitX=0.499;exitY=0.024;exitDx=0;exitDy=0;exitPerimeter=0;entryX=0.169;entryY=0.749;entryDx=0;entryDy=0;entryPerimeter=0;" parent="1" source="ByaOrVBiVzMIFA-mLrSC-269" target="ByaOrVBiVzMIFA-mLrSC-239" edge="1">
          <mxGeometry width="50" height="50" relative="1" as="geometry">
            <mxPoint x="10548" y="299.86" as="sourcePoint" />
            <mxPoint x="10805" y="300" as="targetPoint" />
          </mxGeometry>
        </mxCell>
        <mxCell id="ByaOrVBiVzMIFA-mLrSC-269" value="" style="verticalLabelPosition=bottom;verticalAlign=top;html=1;shape=mxgraph.basic.arc;startAngle=0.4936371943260041;endAngle=0.008113115336112179;rotation=90;" parent="1" vertex="1">
          <mxGeometry x="10529" y="290" width="20" height="20" as="geometry" />
        </mxCell>
        <mxCell id="ByaOrVBiVzMIFA-mLrSC-270" value="" style="verticalLabelPosition=bottom;verticalAlign=top;html=1;shape=mxgraph.basic.arc;startAngle=0.4936371943260041;endAngle=0.008113115336112179;rotation=90;" parent="1" vertex="1">
          <mxGeometry x="10529" y="388" width="20" height="20" as="geometry" />
        </mxCell>
        <mxCell id="ByaOrVBiVzMIFA-mLrSC-271" value="" style="verticalLabelPosition=bottom;verticalAlign=top;html=1;shape=mxgraph.basic.arc;startAngle=0.4936371943260041;endAngle=0.008113115336112179;rotation=90;" parent="1" vertex="1">
          <mxGeometry x="10529" y="490" width="20" height="20" as="geometry" />
        </mxCell>
        <mxCell id="ByaOrVBiVzMIFA-mLrSC-272" value="" style="endArrow=none;html=1;rounded=0;entryX=0.494;entryY=0.986;entryDx=0;entryDy=0;entryPerimeter=0;" parent="1" edge="1">
          <mxGeometry width="50" height="50" relative="1" as="geometry">
            <mxPoint x="10479" y="300" as="sourcePoint" />
            <mxPoint x="10529" y="299.58000000000004" as="targetPoint" />
          </mxGeometry>
        </mxCell>
        <mxCell id="ByaOrVBiVzMIFA-mLrSC-273" value="" style="endArrow=none;html=1;rounded=0;entryX=0.494;entryY=0.986;entryDx=0;entryDy=0;entryPerimeter=0;" parent="1" edge="1">
          <mxGeometry width="50" height="50" relative="1" as="geometry">
            <mxPoint x="10479" y="398" as="sourcePoint" />
            <mxPoint x="10529" y="398" as="targetPoint" />
          </mxGeometry>
        </mxCell>
        <mxCell id="ByaOrVBiVzMIFA-mLrSC-274" value="" style="endArrow=none;html=1;rounded=0;entryX=0.494;entryY=0.986;entryDx=0;entryDy=0;entryPerimeter=0;" parent="1" edge="1">
          <mxGeometry width="50" height="50" relative="1" as="geometry">
            <mxPoint x="10479" y="500" as="sourcePoint" />
            <mxPoint x="10529" y="499.83000000000004" as="targetPoint" />
          </mxGeometry>
        </mxCell>
        <mxCell id="ByaOrVBiVzMIFA-mLrSC-275" value="" style="endArrow=classic;html=1;rounded=0;exitX=0.5;exitY=0;exitDx=0;exitDy=0;exitPerimeter=0;entryX=-0.058;entryY=0.702;entryDx=0;entryDy=0;entryPerimeter=0;" parent="1" source="ByaOrVBiVzMIFA-mLrSC-276" target="ByaOrVBiVzMIFA-mLrSC-246" edge="1">
          <mxGeometry width="50" height="50" relative="1" as="geometry">
            <mxPoint x="10710" y="600" as="sourcePoint" />
            <mxPoint x="10789" y="600" as="targetPoint" />
          </mxGeometry>
        </mxCell>
        <mxCell id="ByaOrVBiVzMIFA-mLrSC-276" value="" style="verticalLabelPosition=bottom;verticalAlign=top;html=1;shape=mxgraph.basic.arc;startAngle=0.4936371943260041;endAngle=0.008113115336112179;rotation=90;" parent="1" vertex="1">
          <mxGeometry x="10530" y="590" width="20" height="20" as="geometry" />
        </mxCell>
        <mxCell id="ByaOrVBiVzMIFA-mLrSC-277" value="" style="endArrow=none;html=1;rounded=0;entryX=0.498;entryY=0.999;entryDx=0;entryDy=0;entryPerimeter=0;" parent="1" target="ByaOrVBiVzMIFA-mLrSC-276" edge="1">
          <mxGeometry width="50" height="50" relative="1" as="geometry">
            <mxPoint x="10480" y="600" as="sourcePoint" />
            <mxPoint x="10529.2" y="599.96" as="targetPoint" />
          </mxGeometry>
        </mxCell>
        <mxCell id="ByaOrVBiVzMIFA-mLrSC-278" value="" style="endArrow=classic;html=1;rounded=0;entryX=0.208;entryY=0.749;entryDx=0;entryDy=0;entryPerimeter=0;exitX=0.509;exitY=0.003;exitDx=0;exitDy=0;exitPerimeter=0;" parent="1" source="ByaOrVBiVzMIFA-mLrSC-271" edge="1">
          <mxGeometry width="50" height="50" relative="1" as="geometry">
            <mxPoint x="10550" y="500" as="sourcePoint" />
            <mxPoint x="10789" y="500" as="targetPoint" />
          </mxGeometry>
        </mxCell>
        <mxCell id="ByaOrVBiVzMIFA-mLrSC-279" value="" style="endArrow=classic;html=1;rounded=0;exitX=0.5;exitY=0;exitDx=0;exitDy=0;exitPerimeter=0;entryX=0.197;entryY=0.749;entryDx=0;entryDy=0;entryPerimeter=0;" parent="1" edge="1">
          <mxGeometry width="50" height="50" relative="1" as="geometry">
            <mxPoint x="10549" y="397.78" as="sourcePoint" />
            <mxPoint x="10801" y="397" as="targetPoint" />
          </mxGeometry>
        </mxCell>
        <mxCell id="ByaOrVBiVzMIFA-mLrSC-280" style="edgeStyle=orthogonalEdgeStyle;rounded=0;orthogonalLoop=1;jettySize=auto;html=1;entryX=0.565;entryY=1.002;entryDx=0;entryDy=0;entryPerimeter=0;exitX=0.497;exitY=-0.047;exitDx=0;exitDy=0;exitPerimeter=0;" parent="1" source="ByaOrVBiVzMIFA-mLrSC-229" edge="1">
          <mxGeometry relative="1" as="geometry">
            <mxPoint x="10995" y="681" as="sourcePoint" />
            <mxPoint x="11239.68" y="680.9249999999995" as="targetPoint" />
          </mxGeometry>
        </mxCell>
        <mxCell id="ByaOrVBiVzMIFA-mLrSC-285" value="" style="endArrow=classic;html=1;rounded=0;entryX=-0.058;entryY=0.702;entryDx=0;entryDy=0;entryPerimeter=0;" parent="1" edge="1">
          <mxGeometry width="50" height="50" relative="1" as="geometry">
            <mxPoint x="10620" y="801" as="sourcePoint" />
            <mxPoint x="10789" y="801" as="targetPoint" />
          </mxGeometry>
        </mxCell>
        <mxCell id="ByaOrVBiVzMIFA-mLrSC-287" value="" style="endArrow=classic;html=1;rounded=0;entryX=-0.058;entryY=0.702;entryDx=0;entryDy=0;entryPerimeter=0;" parent="1" edge="1">
          <mxGeometry width="50" height="50" relative="1" as="geometry">
            <mxPoint x="10620" y="900" as="sourcePoint" />
            <mxPoint x="10789" y="900.3199999999999" as="targetPoint" />
          </mxGeometry>
        </mxCell>
        <mxCell id="ByaOrVBiVzMIFA-mLrSC-288" value="" style="endArrow=none;html=1;rounded=0;" parent="1" edge="1">
          <mxGeometry width="50" height="50" relative="1" as="geometry">
            <mxPoint x="10681" y="920.5" as="sourcePoint" />
            <mxPoint x="10721" y="878.5" as="targetPoint" />
          </mxGeometry>
        </mxCell>
        <mxCell id="ByaOrVBiVzMIFA-mLrSC-289" value="1&#39;b1" style="edgeLabel;html=1;align=center;verticalAlign=middle;resizable=0;points=[];" parent="ByaOrVBiVzMIFA-mLrSC-288" vertex="1" connectable="0">
          <mxGeometry x="-0.067" y="-3" relative="1" as="geometry">
            <mxPoint x="-9" y="-16" as="offset" />
          </mxGeometry>
        </mxCell>
        <mxCell id="ByaOrVBiVzMIFA-mLrSC-290" value="" style="endArrow=none;html=1;rounded=0;" parent="1" edge="1">
          <mxGeometry width="50" height="50" relative="1" as="geometry">
            <mxPoint x="10681" y="822" as="sourcePoint" />
            <mxPoint x="10721" y="780" as="targetPoint" />
          </mxGeometry>
        </mxCell>
        <mxCell id="ByaOrVBiVzMIFA-mLrSC-291" value="1&#39;b1" style="edgeLabel;html=1;align=center;verticalAlign=middle;resizable=0;points=[];" parent="ByaOrVBiVzMIFA-mLrSC-290" vertex="1" connectable="0">
          <mxGeometry x="-0.067" y="-3" relative="1" as="geometry">
            <mxPoint x="-9" y="-16" as="offset" />
          </mxGeometry>
        </mxCell>
        <mxCell id="ByaOrVBiVzMIFA-mLrSC-292" value="1" style="text;strokeColor=none;fillColor=none;align=left;verticalAlign=middle;spacingLeft=4;spacingRight=4;overflow=hidden;points=[[0,0.5],[1,0.5]];portConstraint=eastwest;rotatable=0;whiteSpace=wrap;html=1;fontSize=8;" parent="1" vertex="1">
          <mxGeometry x="10956" y="691.5" width="28" height="16" as="geometry" />
        </mxCell>
        <mxCell id="ByaOrVBiVzMIFA-mLrSC-293" value="1" style="text;strokeColor=none;fillColor=none;align=left;verticalAlign=middle;spacingLeft=4;spacingRight=4;overflow=hidden;points=[[0,0.5],[1,0.5]];portConstraint=eastwest;rotatable=0;whiteSpace=wrap;html=1;fontSize=8;" parent="1" vertex="1">
          <mxGeometry x="10956" y="592" width="28" height="16" as="geometry" />
        </mxCell>
        <mxCell id="ByaOrVBiVzMIFA-mLrSC-294" value="1" style="text;strokeColor=none;fillColor=none;align=left;verticalAlign=middle;spacingLeft=4;spacingRight=4;overflow=hidden;points=[[0,0.5],[1,0.5]];portConstraint=eastwest;rotatable=0;whiteSpace=wrap;html=1;fontSize=8;" parent="1" vertex="1">
          <mxGeometry x="10956" y="491" width="28" height="16" as="geometry" />
        </mxCell>
        <mxCell id="ByaOrVBiVzMIFA-mLrSC-295" value="0" style="text;strokeColor=none;fillColor=none;align=left;verticalAlign=middle;spacingLeft=4;spacingRight=4;overflow=hidden;points=[[0,0.5],[1,0.5]];portConstraint=eastwest;rotatable=0;whiteSpace=wrap;html=1;fontSize=8;" parent="1" vertex="1">
          <mxGeometry x="10956" y="650.25" width="28" height="16" as="geometry" />
        </mxCell>
        <mxCell id="ByaOrVBiVzMIFA-mLrSC-296" value="0" style="text;strokeColor=none;fillColor=none;align=left;verticalAlign=middle;spacingLeft=4;spacingRight=4;overflow=hidden;points=[[0,0.5],[1,0.5]];portConstraint=eastwest;rotatable=0;whiteSpace=wrap;html=1;fontSize=8;" parent="1" vertex="1">
          <mxGeometry x="10956" y="550.75" width="28" height="16" as="geometry" />
        </mxCell>
        <mxCell id="ByaOrVBiVzMIFA-mLrSC-297" value="0" style="text;strokeColor=none;fillColor=none;align=left;verticalAlign=middle;spacingLeft=4;spacingRight=4;overflow=hidden;points=[[0,0.5],[1,0.5]];portConstraint=eastwest;rotatable=0;whiteSpace=wrap;html=1;fontSize=8;" parent="1" vertex="1">
          <mxGeometry x="10956" y="449.75" width="28" height="16" as="geometry" />
        </mxCell>
        <mxCell id="ByaOrVBiVzMIFA-mLrSC-298" value="" style="endArrow=classic;html=1;rounded=0;entryX=-0.058;entryY=0.702;entryDx=0;entryDy=0;entryPerimeter=0;" parent="1" edge="1">
          <mxGeometry width="50" height="50" relative="1" as="geometry">
            <mxPoint x="10925" y="499.68000000000006" as="sourcePoint" />
            <mxPoint x="10956" y="500.31999999999994" as="targetPoint" />
          </mxGeometry>
        </mxCell>
        <mxCell id="ByaOrVBiVzMIFA-mLrSC-299" value="" style="endArrow=classic;html=1;rounded=0;entryX=-0.058;entryY=0.702;entryDx=0;entryDy=0;entryPerimeter=0;" parent="1" edge="1">
          <mxGeometry width="50" height="50" relative="1" as="geometry">
            <mxPoint x="10925" y="599.6800000000001" as="sourcePoint" />
            <mxPoint x="10956" y="600.3199999999999" as="targetPoint" />
          </mxGeometry>
        </mxCell>
        <mxCell id="ByaOrVBiVzMIFA-mLrSC-300" value="" style="endArrow=classic;html=1;rounded=0;entryX=-0.058;entryY=0.702;entryDx=0;entryDy=0;entryPerimeter=0;" parent="1" edge="1">
          <mxGeometry width="50" height="50" relative="1" as="geometry">
            <mxPoint x="10925" y="700.1800000000001" as="sourcePoint" />
            <mxPoint x="10956" y="700.8199999999999" as="targetPoint" />
          </mxGeometry>
        </mxCell>
        <mxCell id="ByaOrVBiVzMIFA-mLrSC-301" value="" style="endArrow=classic;html=1;rounded=0;entryX=-0.058;entryY=0.702;entryDx=0;entryDy=0;entryPerimeter=0;" parent="1" edge="1">
          <mxGeometry width="50" height="50" relative="1" as="geometry">
            <mxPoint x="10925" y="660.6800000000001" as="sourcePoint" />
            <mxPoint x="10956" y="661.3199999999999" as="targetPoint" />
          </mxGeometry>
        </mxCell>
        <mxCell id="ByaOrVBiVzMIFA-mLrSC-302" value="" style="endArrow=classic;html=1;rounded=0;entryX=-0.058;entryY=0.702;entryDx=0;entryDy=0;entryPerimeter=0;" parent="1" edge="1">
          <mxGeometry width="50" height="50" relative="1" as="geometry">
            <mxPoint x="10925" y="560.1800000000001" as="sourcePoint" />
            <mxPoint x="10956" y="560.8199999999999" as="targetPoint" />
          </mxGeometry>
        </mxCell>
        <mxCell id="ByaOrVBiVzMIFA-mLrSC-303" value="" style="endArrow=classic;html=1;rounded=0;entryX=-0.058;entryY=0.702;entryDx=0;entryDy=0;entryPerimeter=0;" parent="1" edge="1">
          <mxGeometry width="50" height="50" relative="1" as="geometry">
            <mxPoint x="10925" y="460.18000000000006" as="sourcePoint" />
            <mxPoint x="10956" y="460.81999999999994" as="targetPoint" />
          </mxGeometry>
        </mxCell>
        <mxCell id="ByaOrVBiVzMIFA-mLrSC-304" value="16&#39;d0" style="text;strokeColor=none;fillColor=none;align=left;verticalAlign=middle;spacingLeft=4;spacingRight=4;overflow=hidden;points=[[0,0.5],[1,0.5]];portConstraint=eastwest;rotatable=0;whiteSpace=wrap;html=1;fontSize=8;" parent="1" vertex="1">
          <mxGeometry x="10920" y="680" width="31" height="16" as="geometry" />
        </mxCell>
        <mxCell id="ByaOrVBiVzMIFA-mLrSC-305" value="16&#39;d0" style="text;strokeColor=none;fillColor=none;align=left;verticalAlign=middle;spacingLeft=4;spacingRight=4;overflow=hidden;points=[[0,0.5],[1,0.5]];portConstraint=eastwest;rotatable=0;whiteSpace=wrap;html=1;fontSize=8;" parent="1" vertex="1">
          <mxGeometry x="10920" y="580" width="31" height="16" as="geometry" />
        </mxCell>
        <mxCell id="ByaOrVBiVzMIFA-mLrSC-306" value="16&#39;d0" style="text;strokeColor=none;fillColor=none;align=left;verticalAlign=middle;spacingLeft=4;spacingRight=4;overflow=hidden;points=[[0,0.5],[1,0.5]];portConstraint=eastwest;rotatable=0;whiteSpace=wrap;html=1;fontSize=8;" parent="1" vertex="1">
          <mxGeometry x="10920" y="480" width="31" height="16" as="geometry" />
        </mxCell>
        <mxCell id="ByaOrVBiVzMIFA-mLrSC-307" value="16&#39;d2" style="text;strokeColor=none;fillColor=none;align=left;verticalAlign=middle;spacingLeft=4;spacingRight=4;overflow=hidden;points=[[0,0.5],[1,0.5]];portConstraint=eastwest;rotatable=0;whiteSpace=wrap;html=1;fontSize=8;" parent="1" vertex="1">
          <mxGeometry x="10920" y="541" width="31" height="16" as="geometry" />
        </mxCell>
        <mxCell id="ByaOrVBiVzMIFA-mLrSC-308" value="16&#39;d1" style="text;strokeColor=none;fillColor=none;align=left;verticalAlign=middle;spacingLeft=4;spacingRight=4;overflow=hidden;points=[[0,0.5],[1,0.5]];portConstraint=eastwest;rotatable=0;whiteSpace=wrap;html=1;fontSize=8;" parent="1" vertex="1">
          <mxGeometry x="10920" y="441" width="31" height="16" as="geometry" />
        </mxCell>
        <mxCell id="ByaOrVBiVzMIFA-mLrSC-309" value="16&#39;d3" style="text;strokeColor=none;fillColor=none;align=left;verticalAlign=middle;spacingLeft=4;spacingRight=4;overflow=hidden;points=[[0,0.5],[1,0.5]];portConstraint=eastwest;rotatable=0;whiteSpace=wrap;html=1;fontSize=8;" parent="1" vertex="1">
          <mxGeometry x="10920" y="641" width="31" height="16" as="geometry" />
        </mxCell>
        <mxCell id="ByaOrVBiVzMIFA-mLrSC-311" style="edgeStyle=orthogonalEdgeStyle;rounded=0;orthogonalLoop=1;jettySize=auto;html=1;entryX=0.535;entryY=0.99;entryDx=0;entryDy=0;entryPerimeter=0;" parent="1" source="ByaOrVBiVzMIFA-mLrSC-239" target="ByaOrVBiVzMIFA-mLrSC-1" edge="1">
          <mxGeometry relative="1" as="geometry" />
        </mxCell>
        <mxCell id="ByaOrVBiVzMIFA-mLrSC-315" value="D" style="edgeLabel;html=1;align=center;verticalAlign=middle;resizable=0;points=[];fontSize=9;" parent="1" vertex="1" connectable="0">
          <mxGeometry x="11630.00348284405" y="180.00370076444767" as="geometry">
            <mxPoint as="offset" />
          </mxGeometry>
        </mxCell>
        <mxCell id="ByaOrVBiVzMIFA-mLrSC-317" value="Q" style="edgeLabel;html=1;align=center;verticalAlign=middle;resizable=0;points=[];fontSize=9;" parent="1" vertex="1" connectable="0">
          <mxGeometry x="11642.00348284405" y="188.00370076444767" as="geometry">
            <mxPoint x="29" y="11" as="offset" />
          </mxGeometry>
        </mxCell>
        <mxCell id="ByaOrVBiVzMIFA-mLrSC-318" value="" style="endArrow=none;html=1;rounded=0;fontSize=1;spacing=-2;" parent="1" edge="1">
          <mxGeometry width="50" height="50" relative="1" as="geometry">
            <mxPoint x="11761" y="220" as="sourcePoint" />
            <mxPoint x="11800" y="180" as="targetPoint" />
            <Array as="points" />
          </mxGeometry>
        </mxCell>
        <mxCell id="ByaOrVBiVzMIFA-mLrSC-319" value="16" style="edgeLabel;html=1;align=center;verticalAlign=middle;resizable=0;points=[];fontSize=9;" parent="ByaOrVBiVzMIFA-mLrSC-318" vertex="1" connectable="0">
          <mxGeometry x="0.0533" y="-4" relative="1" as="geometry">
            <mxPoint x="-2" y="-24" as="offset" />
          </mxGeometry>
        </mxCell>
        <mxCell id="ByaOrVBiVzMIFA-mLrSC-320" value="B" style="text;strokeColor=none;fillColor=none;align=left;verticalAlign=middle;spacingLeft=4;spacingRight=4;overflow=hidden;points=[[0,0.5],[1,0.5]];portConstraint=eastwest;rotatable=0;whiteSpace=wrap;html=1;fontSize=8;" parent="1" vertex="1">
          <mxGeometry x="10805" y="-109" width="28" height="16" as="geometry" />
        </mxCell>
        <mxCell id="ByaOrVBiVzMIFA-mLrSC-321" value="" style="endArrow=none;html=1;rounded=0;" parent="1" edge="1">
          <mxGeometry width="50" height="50" relative="1" as="geometry">
            <mxPoint x="10480" y="700" as="sourcePoint" />
            <mxPoint x="10415" y="-500" as="targetPoint" />
            <Array as="points">
              <mxPoint x="10480" y="-500" />
            </Array>
          </mxGeometry>
        </mxCell>
        <mxCell id="ByaOrVBiVzMIFA-mLrSC-322" value="" style="endArrow=classic;html=1;rounded=0;exitX=0.5;exitY=0;exitDx=0;exitDy=0;exitPerimeter=0;entryX=-0.058;entryY=0.702;entryDx=0;entryDy=0;entryPerimeter=0;" parent="1" source="ByaOrVBiVzMIFA-mLrSC-323" edge="1">
          <mxGeometry width="50" height="50" relative="1" as="geometry">
            <mxPoint x="10710" y="700" as="sourcePoint" />
            <mxPoint x="10788" y="700" as="targetPoint" />
          </mxGeometry>
        </mxCell>
        <mxCell id="ByaOrVBiVzMIFA-mLrSC-323" value="" style="verticalLabelPosition=bottom;verticalAlign=top;html=1;shape=mxgraph.basic.arc;startAngle=0.4936371943260041;endAngle=0.008113115336112179;rotation=90;" parent="1" vertex="1">
          <mxGeometry x="10530" y="690" width="20" height="20" as="geometry" />
        </mxCell>
        <mxCell id="ByaOrVBiVzMIFA-mLrSC-324" value="" style="endArrow=none;html=1;rounded=0;entryX=0.498;entryY=0.999;entryDx=0;entryDy=0;entryPerimeter=0;" parent="1" target="ByaOrVBiVzMIFA-mLrSC-323" edge="1">
          <mxGeometry width="50" height="50" relative="1" as="geometry">
            <mxPoint x="10480" y="700" as="sourcePoint" />
            <mxPoint x="10529.2" y="699.96" as="targetPoint" />
          </mxGeometry>
        </mxCell>
        <mxCell id="ByaOrVBiVzMIFA-mLrSC-325" value="" style="endArrow=none;html=1;rounded=0;fontSize=1;spacing=-2;" parent="1" edge="1">
          <mxGeometry width="50" height="50" relative="1" as="geometry">
            <mxPoint x="11100" y="201" as="sourcePoint" />
            <mxPoint x="11139" y="161" as="targetPoint" />
            <Array as="points" />
          </mxGeometry>
        </mxCell>
        <mxCell id="ByaOrVBiVzMIFA-mLrSC-326" value="16" style="edgeLabel;html=1;align=center;verticalAlign=middle;resizable=0;points=[];fontSize=9;" parent="ByaOrVBiVzMIFA-mLrSC-325" vertex="1" connectable="0">
          <mxGeometry x="0.0533" y="-4" relative="1" as="geometry">
            <mxPoint x="-2" y="-24" as="offset" />
          </mxGeometry>
        </mxCell>
        <mxCell id="ByaOrVBiVzMIFA-mLrSC-327" value="" style="endArrow=none;html=1;rounded=0;fontSize=1;spacing=-2;" parent="1" edge="1">
          <mxGeometry width="50" height="50" relative="1" as="geometry">
            <mxPoint x="11105" y="99" as="sourcePoint" />
            <mxPoint x="11144" y="59" as="targetPoint" />
            <Array as="points" />
          </mxGeometry>
        </mxCell>
        <mxCell id="ByaOrVBiVzMIFA-mLrSC-328" value="16" style="edgeLabel;html=1;align=center;verticalAlign=middle;resizable=0;points=[];fontSize=9;" parent="ByaOrVBiVzMIFA-mLrSC-327" vertex="1" connectable="0">
          <mxGeometry x="0.0533" y="-4" relative="1" as="geometry">
            <mxPoint x="-2" y="-24" as="offset" />
          </mxGeometry>
        </mxCell>
        <mxCell id="ByaOrVBiVzMIFA-mLrSC-329" value="" style="endArrow=none;html=1;rounded=0;fontSize=1;spacing=-2;" parent="1" edge="1">
          <mxGeometry width="50" height="50" relative="1" as="geometry">
            <mxPoint x="11100" y="-100" as="sourcePoint" />
            <mxPoint x="11139" y="-140" as="targetPoint" />
            <Array as="points" />
          </mxGeometry>
        </mxCell>
        <mxCell id="ByaOrVBiVzMIFA-mLrSC-330" value="16" style="edgeLabel;html=1;align=center;verticalAlign=middle;resizable=0;points=[];fontSize=9;" parent="ByaOrVBiVzMIFA-mLrSC-329" vertex="1" connectable="0">
          <mxGeometry x="0.0533" y="-4" relative="1" as="geometry">
            <mxPoint x="-2" y="-24" as="offset" />
          </mxGeometry>
        </mxCell>
        <mxCell id="ByaOrVBiVzMIFA-mLrSC-331" value="" style="endArrow=none;html=1;rounded=0;fontSize=1;spacing=-2;" parent="1" edge="1">
          <mxGeometry width="50" height="50" relative="1" as="geometry">
            <mxPoint x="11100" y="-302" as="sourcePoint" />
            <mxPoint x="11139" y="-342" as="targetPoint" />
            <Array as="points" />
          </mxGeometry>
        </mxCell>
        <mxCell id="ByaOrVBiVzMIFA-mLrSC-332" value="16" style="edgeLabel;html=1;align=center;verticalAlign=middle;resizable=0;points=[];fontSize=9;" parent="ByaOrVBiVzMIFA-mLrSC-331" vertex="1" connectable="0">
          <mxGeometry x="0.0533" y="-4" relative="1" as="geometry">
            <mxPoint x="-2" y="-24" as="offset" />
          </mxGeometry>
        </mxCell>
        <mxCell id="ByaOrVBiVzMIFA-mLrSC-335" value="" style="endArrow=none;html=1;rounded=0;fontSize=1;spacing=-2;" parent="1" edge="1">
          <mxGeometry width="50" height="50" relative="1" as="geometry">
            <mxPoint x="11100" y="-400" as="sourcePoint" />
            <mxPoint x="11139" y="-440" as="targetPoint" />
            <Array as="points" />
          </mxGeometry>
        </mxCell>
        <mxCell id="ByaOrVBiVzMIFA-mLrSC-336" value="16" style="edgeLabel;html=1;align=center;verticalAlign=middle;resizable=0;points=[];fontSize=9;" parent="ByaOrVBiVzMIFA-mLrSC-335" vertex="1" connectable="0">
          <mxGeometry x="0.0533" y="-4" relative="1" as="geometry">
            <mxPoint x="-2" y="-24" as="offset" />
          </mxGeometry>
        </mxCell>
        <mxCell id="ByaOrVBiVzMIFA-mLrSC-337" value="" style="endArrow=none;html=1;rounded=0;fontSize=1;spacing=-2;" parent="1" edge="1">
          <mxGeometry width="50" height="50" relative="1" as="geometry">
            <mxPoint x="11100" y="-501" as="sourcePoint" />
            <mxPoint x="11139" y="-541" as="targetPoint" />
            <Array as="points" />
          </mxGeometry>
        </mxCell>
        <mxCell id="ByaOrVBiVzMIFA-mLrSC-338" value="16" style="edgeLabel;html=1;align=center;verticalAlign=middle;resizable=0;points=[];fontSize=9;" parent="ByaOrVBiVzMIFA-mLrSC-337" vertex="1" connectable="0">
          <mxGeometry x="0.0533" y="-4" relative="1" as="geometry">
            <mxPoint x="-2" y="-24" as="offset" />
          </mxGeometry>
        </mxCell>
        <mxCell id="ByaOrVBiVzMIFA-mLrSC-341" value="" style="endArrow=none;html=1;rounded=0;fontSize=1;spacing=-2;" parent="1" edge="1">
          <mxGeometry width="50" height="50" relative="1" as="geometry">
            <mxPoint x="11100" y="-201" as="sourcePoint" />
            <mxPoint x="11139" y="-241" as="targetPoint" />
            <Array as="points" />
          </mxGeometry>
        </mxCell>
        <mxCell id="ByaOrVBiVzMIFA-mLrSC-342" value="16" style="edgeLabel;html=1;align=center;verticalAlign=middle;resizable=0;points=[];fontSize=9;" parent="ByaOrVBiVzMIFA-mLrSC-341" vertex="1" connectable="0">
          <mxGeometry x="0.0533" y="-4" relative="1" as="geometry">
            <mxPoint x="-2" y="-24" as="offset" />
          </mxGeometry>
        </mxCell>
        <mxCell id="ByaOrVBiVzMIFA-mLrSC-343" value="" style="endArrow=none;html=1;rounded=0;fontSize=1;spacing=-2;" parent="1" edge="1">
          <mxGeometry width="50" height="50" relative="1" as="geometry">
            <mxPoint x="11100" as="sourcePoint" />
            <mxPoint x="11139" y="-40" as="targetPoint" />
            <Array as="points" />
          </mxGeometry>
        </mxCell>
        <mxCell id="ByaOrVBiVzMIFA-mLrSC-344" value="16" style="edgeLabel;html=1;align=center;verticalAlign=middle;resizable=0;points=[];fontSize=9;" parent="ByaOrVBiVzMIFA-mLrSC-343" vertex="1" connectable="0">
          <mxGeometry x="0.0533" y="-4" relative="1" as="geometry">
            <mxPoint x="-2" y="-24" as="offset" />
          </mxGeometry>
        </mxCell>
        <mxCell id="ByaOrVBiVzMIFA-mLrSC-345" value="" style="endArrow=none;html=1;rounded=0;fontSize=1;spacing=-2;" parent="1" edge="1">
          <mxGeometry width="50" height="50" relative="1" as="geometry">
            <mxPoint x="11100" y="300" as="sourcePoint" />
            <mxPoint x="11139" y="260" as="targetPoint" />
            <Array as="points" />
          </mxGeometry>
        </mxCell>
        <mxCell id="ByaOrVBiVzMIFA-mLrSC-346" value="16" style="edgeLabel;html=1;align=center;verticalAlign=middle;resizable=0;points=[];fontSize=9;" parent="ByaOrVBiVzMIFA-mLrSC-345" vertex="1" connectable="0">
          <mxGeometry x="0.0533" y="-4" relative="1" as="geometry">
            <mxPoint x="-2" y="-24" as="offset" />
          </mxGeometry>
        </mxCell>
        <mxCell id="ByaOrVBiVzMIFA-mLrSC-347" value="" style="endArrow=none;html=1;rounded=0;fontSize=1;spacing=-2;" parent="1" edge="1">
          <mxGeometry width="50" height="50" relative="1" as="geometry">
            <mxPoint x="11100" y="400" as="sourcePoint" />
            <mxPoint x="11139" y="360" as="targetPoint" />
            <Array as="points" />
          </mxGeometry>
        </mxCell>
        <mxCell id="ByaOrVBiVzMIFA-mLrSC-348" value="16" style="edgeLabel;html=1;align=center;verticalAlign=middle;resizable=0;points=[];fontSize=9;" parent="ByaOrVBiVzMIFA-mLrSC-347" vertex="1" connectable="0">
          <mxGeometry x="0.0533" y="-4" relative="1" as="geometry">
            <mxPoint x="-2" y="-24" as="offset" />
          </mxGeometry>
        </mxCell>
        <mxCell id="ByaOrVBiVzMIFA-mLrSC-349" value="" style="endArrow=none;html=1;rounded=0;fontSize=1;spacing=-2;" parent="1" edge="1">
          <mxGeometry width="50" height="50" relative="1" as="geometry">
            <mxPoint x="11100" y="501" as="sourcePoint" />
            <mxPoint x="11139" y="461" as="targetPoint" />
            <Array as="points" />
          </mxGeometry>
        </mxCell>
        <mxCell id="ByaOrVBiVzMIFA-mLrSC-350" value="16" style="edgeLabel;html=1;align=center;verticalAlign=middle;resizable=0;points=[];fontSize=9;" parent="ByaOrVBiVzMIFA-mLrSC-349" vertex="1" connectable="0">
          <mxGeometry x="0.0533" y="-4" relative="1" as="geometry">
            <mxPoint x="-2" y="-24" as="offset" />
          </mxGeometry>
        </mxCell>
        <mxCell id="ByaOrVBiVzMIFA-mLrSC-351" value="" style="endArrow=none;html=1;rounded=0;fontSize=1;spacing=-2;" parent="1" edge="1">
          <mxGeometry width="50" height="50" relative="1" as="geometry">
            <mxPoint x="11100" y="598" as="sourcePoint" />
            <mxPoint x="11139" y="558" as="targetPoint" />
            <Array as="points" />
          </mxGeometry>
        </mxCell>
        <mxCell id="ByaOrVBiVzMIFA-mLrSC-352" value="16" style="edgeLabel;html=1;align=center;verticalAlign=middle;resizable=0;points=[];fontSize=9;" parent="ByaOrVBiVzMIFA-mLrSC-351" vertex="1" connectable="0">
          <mxGeometry x="0.0533" y="-4" relative="1" as="geometry">
            <mxPoint x="-2" y="-24" as="offset" />
          </mxGeometry>
        </mxCell>
        <mxCell id="ByaOrVBiVzMIFA-mLrSC-353" value="" style="endArrow=none;html=1;rounded=0;fontSize=1;spacing=-2;" parent="1" edge="1">
          <mxGeometry width="50" height="50" relative="1" as="geometry">
            <mxPoint x="11105" y="700.5" as="sourcePoint" />
            <mxPoint x="11144" y="660.5" as="targetPoint" />
            <Array as="points" />
          </mxGeometry>
        </mxCell>
        <mxCell id="ByaOrVBiVzMIFA-mLrSC-354" value="16" style="edgeLabel;html=1;align=center;verticalAlign=middle;resizable=0;points=[];fontSize=9;" parent="ByaOrVBiVzMIFA-mLrSC-353" vertex="1" connectable="0">
          <mxGeometry x="0.0533" y="-4" relative="1" as="geometry">
            <mxPoint x="-2" y="-24" as="offset" />
          </mxGeometry>
        </mxCell>
        <mxCell id="ByaOrVBiVzMIFA-mLrSC-355" value="" style="endArrow=none;html=1;rounded=0;fontSize=1;spacing=-2;" parent="1" edge="1">
          <mxGeometry width="50" height="50" relative="1" as="geometry">
            <mxPoint x="11100" y="801" as="sourcePoint" />
            <mxPoint x="11139" y="761" as="targetPoint" />
            <Array as="points" />
          </mxGeometry>
        </mxCell>
        <mxCell id="ByaOrVBiVzMIFA-mLrSC-356" value="16" style="edgeLabel;html=1;align=center;verticalAlign=middle;resizable=0;points=[];fontSize=9;" parent="ByaOrVBiVzMIFA-mLrSC-355" vertex="1" connectable="0">
          <mxGeometry x="0.0533" y="-4" relative="1" as="geometry">
            <mxPoint x="-2" y="-24" as="offset" />
          </mxGeometry>
        </mxCell>
        <mxCell id="ByaOrVBiVzMIFA-mLrSC-357" value="" style="endArrow=none;html=1;rounded=0;fontSize=1;spacing=-2;" parent="1" edge="1">
          <mxGeometry width="50" height="50" relative="1" as="geometry">
            <mxPoint x="11100" y="898" as="sourcePoint" />
            <mxPoint x="11139" y="858" as="targetPoint" />
            <Array as="points" />
          </mxGeometry>
        </mxCell>
        <mxCell id="ByaOrVBiVzMIFA-mLrSC-358" value="16" style="edgeLabel;html=1;align=center;verticalAlign=middle;resizable=0;points=[];fontSize=9;" parent="ByaOrVBiVzMIFA-mLrSC-357" vertex="1" connectable="0">
          <mxGeometry x="0.0533" y="-4" relative="1" as="geometry">
            <mxPoint x="-2" y="-24" as="offset" />
          </mxGeometry>
        </mxCell>
        <mxCell id="ByaOrVBiVzMIFA-mLrSC-359" value="MUX" style="text;strokeColor=none;fillColor=none;align=left;verticalAlign=middle;spacingLeft=4;spacingRight=4;overflow=hidden;points=[[0,0.5],[1,0.5]];portConstraint=eastwest;rotatable=0;whiteSpace=wrap;html=1;fontSize=25;" parent="1" vertex="1">
          <mxGeometry x="11286" y="147" width="76" height="48" as="geometry" />
        </mxCell>
        <mxCell id="ByaOrVBiVzMIFA-mLrSC-363" value="" style="endArrow=none;dashed=1;html=1;rounded=0;" parent="1" edge="1">
          <mxGeometry width="50" height="50" relative="1" as="geometry">
            <mxPoint x="10380" y="1100" as="sourcePoint" />
            <mxPoint x="10380" y="1100" as="targetPoint" />
            <Array as="points">
              <mxPoint x="10480" y="1100" />
              <mxPoint x="10480" y="1060" />
              <mxPoint x="10380" y="1060" />
              <mxPoint x="10380" y="1080" />
            </Array>
          </mxGeometry>
        </mxCell>
        <mxCell id="ByaOrVBiVzMIFA-mLrSC-364" value="ALU_FUN" style="text;strokeColor=none;fillColor=none;align=left;verticalAlign=middle;spacingLeft=4;spacingRight=4;overflow=hidden;points=[[0,0.5],[1,0.5]];portConstraint=eastwest;rotatable=0;whiteSpace=wrap;html=1;fontSize=15;strokeWidth=2;" parent="1" vertex="1">
          <mxGeometry x="10389" y="1055" width="100.5" height="50" as="geometry" />
        </mxCell>
        <mxCell id="ByaOrVBiVzMIFA-mLrSC-365" value="" style="endArrow=none;html=1;rounded=0;" parent="1" edge="1">
          <mxGeometry width="50" height="50" relative="1" as="geometry">
            <mxPoint x="10460" y="1640" as="sourcePoint" />
            <mxPoint x="10460" y="1119" as="targetPoint" />
          </mxGeometry>
        </mxCell>
        <mxCell id="ByaOrVBiVzMIFA-mLrSC-366" value="" style="endArrow=none;html=1;rounded=0;" parent="1" edge="1">
          <mxGeometry width="50" height="50" relative="1" as="geometry">
            <mxPoint x="10440" y="1680" as="sourcePoint" />
            <mxPoint x="10439.69" y="1119" as="targetPoint" />
          </mxGeometry>
        </mxCell>
        <mxCell id="ByaOrVBiVzMIFA-mLrSC-367" value="" style="endArrow=none;html=1;rounded=0;exitX=0.181;exitY=0.499;exitDx=0;exitDy=0;exitPerimeter=0;" parent="1" source="ByaOrVBiVzMIFA-mLrSC-404" edge="1">
          <mxGeometry width="50" height="50" relative="1" as="geometry">
            <mxPoint x="10920.344827586207" y="1720" as="sourcePoint" />
            <mxPoint x="10420" y="1119" as="targetPoint" />
            <Array as="points">
              <mxPoint x="10920" y="1660" />
              <mxPoint x="10920" y="1720" />
              <mxPoint x="10420" y="1720" />
            </Array>
          </mxGeometry>
        </mxCell>
        <mxCell id="ByaOrVBiVzMIFA-mLrSC-368" value="" style="endArrow=none;html=1;rounded=0;exitX=0.003;exitY=0.752;exitDx=0;exitDy=0;exitPerimeter=0;" parent="1" source="ByaOrVBiVzMIFA-mLrSC-404" edge="1">
          <mxGeometry width="50" height="50" relative="1" as="geometry">
            <mxPoint x="10935" y="1675" as="sourcePoint" />
            <mxPoint x="10399.69" y="1119" as="targetPoint" />
            <Array as="points">
              <mxPoint x="10940" y="1760" />
              <mxPoint x="10400" y="1760" />
            </Array>
          </mxGeometry>
        </mxCell>
        <mxCell id="ByaOrVBiVzMIFA-mLrSC-369" value="3&amp;nbsp; &amp;nbsp; &amp;nbsp;2&amp;nbsp; &amp;nbsp; &amp;nbsp;1&amp;nbsp; &amp;nbsp; &amp;nbsp;0" style="text;strokeColor=none;fillColor=none;align=left;verticalAlign=middle;spacingLeft=4;spacingRight=4;overflow=hidden;points=[[0,0.5],[1,0.5]];portConstraint=eastwest;rotatable=0;whiteSpace=wrap;html=1;fontSize=10;strokeWidth=2;" parent="1" vertex="1">
          <mxGeometry x="10392" y="1086" width="151" height="50" as="geometry" />
        </mxCell>
        <mxCell id="ByaOrVBiVzMIFA-mLrSC-371" value="" style="endArrow=classic;html=1;rounded=0;exitX=0.5;exitY=0;exitDx=0;exitDy=0;exitPerimeter=0;entryX=0.232;entryY=0.25;entryDx=0;entryDy=0;entryPerimeter=0;" parent="1" source="ByaOrVBiVzMIFA-mLrSC-372" target="ByaOrVBiVzMIFA-mLrSC-374" edge="1">
          <mxGeometry width="50" height="50" relative="1" as="geometry">
            <mxPoint x="10630" y="1160" as="sourcePoint" />
            <mxPoint x="10708" y="1160" as="targetPoint" />
          </mxGeometry>
        </mxCell>
        <mxCell id="ByaOrVBiVzMIFA-mLrSC-372" value="" style="verticalLabelPosition=bottom;verticalAlign=top;html=1;shape=mxgraph.basic.arc;startAngle=0.4936371943260041;endAngle=0.008113115336112179;rotation=90;" parent="1" vertex="1">
          <mxGeometry x="10432.5" y="1132.5" width="20" height="54" as="geometry" />
        </mxCell>
        <mxCell id="ByaOrVBiVzMIFA-mLrSC-373" value="" style="endArrow=none;html=1;rounded=0;" parent="1" edge="1">
          <mxGeometry width="50" height="50" relative="1" as="geometry">
            <mxPoint x="10400" y="1160" as="sourcePoint" />
            <mxPoint x="10415" y="1160" as="targetPoint" />
          </mxGeometry>
        </mxCell>
        <mxCell id="ByaOrVBiVzMIFA-mLrSC-374" value="" style="verticalLabelPosition=bottom;shadow=0;dashed=0;align=center;html=1;verticalAlign=top;shape=mxgraph.electrical.logic_gates.logic_gate;operation=or;negating=1;negSize=0.15;" parent="1" vertex="1">
          <mxGeometry x="10763.66" y="1141" width="116.67" height="78" as="geometry" />
        </mxCell>
        <mxCell id="ByaOrVBiVzMIFA-mLrSC-375" value="" style="endArrow=classic;html=1;rounded=0;exitX=0.5;exitY=0;exitDx=0;exitDy=0;exitPerimeter=0;entryX=0.204;entryY=0.75;entryDx=0;entryDy=0;entryPerimeter=0;" parent="1" source="ByaOrVBiVzMIFA-mLrSC-376" target="ByaOrVBiVzMIFA-mLrSC-374" edge="1">
          <mxGeometry width="50" height="50" relative="1" as="geometry">
            <mxPoint x="10627" y="1194" as="sourcePoint" />
            <mxPoint x="10789" y="1194" as="targetPoint" />
          </mxGeometry>
        </mxCell>
        <mxCell id="ByaOrVBiVzMIFA-mLrSC-376" value="" style="verticalLabelPosition=bottom;verticalAlign=top;html=1;shape=mxgraph.basic.arc;startAngle=0.4936371943260041;endAngle=0.008113115336112179;rotation=90;" parent="1" vertex="1">
          <mxGeometry x="10439.5" y="1181.5" width="25" height="38" as="geometry" />
        </mxCell>
        <mxCell id="ByaOrVBiVzMIFA-mLrSC-377" value="" style="endArrow=none;html=1;rounded=0;entryX=0.498;entryY=0.999;entryDx=0;entryDy=0;entryPerimeter=0;" parent="1" target="ByaOrVBiVzMIFA-mLrSC-376" edge="1">
          <mxGeometry width="50" height="50" relative="1" as="geometry">
            <mxPoint x="10420" y="1200" as="sourcePoint" />
            <mxPoint x="10446.2" y="1193.96" as="targetPoint" />
          </mxGeometry>
        </mxCell>
        <mxCell id="ByaOrVBiVzMIFA-mLrSC-442" style="edgeStyle=orthogonalEdgeStyle;rounded=0;orthogonalLoop=1;jettySize=auto;html=1;entryX=0.013;entryY=0.253;entryDx=0;entryDy=0;entryPerimeter=0;" parent="1" target="ByaOrVBiVzMIFA-mLrSC-388" edge="1">
          <mxGeometry relative="1" as="geometry">
            <mxPoint x="11620" y="1340" as="targetPoint" />
            <mxPoint x="10873.16" y="1340" as="sourcePoint" />
          </mxGeometry>
        </mxCell>
        <mxCell id="ByaOrVBiVzMIFA-mLrSC-380" style="edgeStyle=orthogonalEdgeStyle;rounded=0;orthogonalLoop=1;jettySize=auto;html=1;" parent="1" edge="1">
          <mxGeometry relative="1" as="geometry">
            <mxPoint x="11820" y="1200.5" as="targetPoint" />
            <mxPoint x="11675" y="1200.5" as="sourcePoint" />
          </mxGeometry>
        </mxCell>
        <mxCell id="ByaOrVBiVzMIFA-mLrSC-381" value="" style="rounded=0;whiteSpace=wrap;html=1;" parent="1" vertex="1">
          <mxGeometry x="11620" y="1160.5" width="60" height="80" as="geometry" />
        </mxCell>
        <mxCell id="ByaOrVBiVzMIFA-mLrSC-382" value="CLK" style="text;strokeColor=none;fillColor=none;align=left;verticalAlign=middle;spacingLeft=4;spacingRight=4;overflow=hidden;points=[[0,0.5],[1,0.5]];portConstraint=eastwest;rotatable=0;whiteSpace=wrap;html=1;fontSize=22;" parent="1" vertex="1">
          <mxGeometry x="11462" y="1205.5" width="55" height="25" as="geometry" />
        </mxCell>
        <mxCell id="ByaOrVBiVzMIFA-mLrSC-383" style="edgeStyle=orthogonalEdgeStyle;rounded=0;orthogonalLoop=1;jettySize=auto;html=1;entryX=0.5;entryY=1.225;entryDx=0;entryDy=0;entryPerimeter=0;" parent="1" source="ByaOrVBiVzMIFA-mLrSC-382" edge="1">
          <mxGeometry relative="1" as="geometry">
            <mxPoint x="11618" y="1220.5" as="targetPoint" />
            <Array as="points">
              <mxPoint x="11535" y="1220.5" />
              <mxPoint x="11535" y="1220.5" />
            </Array>
          </mxGeometry>
        </mxCell>
        <mxCell id="ByaOrVBiVzMIFA-mLrSC-384" value="D" style="edgeLabel;html=1;align=center;verticalAlign=middle;resizable=0;points=[];fontSize=9;" parent="1" vertex="1" connectable="0">
          <mxGeometry x="11630.00348284405" y="1180.5037007644478" as="geometry">
            <mxPoint as="offset" />
          </mxGeometry>
        </mxCell>
        <mxCell id="ByaOrVBiVzMIFA-mLrSC-385" value="Q" style="edgeLabel;html=1;align=center;verticalAlign=middle;resizable=0;points=[];fontSize=9;" parent="1" vertex="1" connectable="0">
          <mxGeometry x="11642.00348284405" y="1188.5037007644478" as="geometry">
            <mxPoint x="29" y="11" as="offset" />
          </mxGeometry>
        </mxCell>
        <mxCell id="ByaOrVBiVzMIFA-mLrSC-387" style="edgeStyle=orthogonalEdgeStyle;rounded=0;orthogonalLoop=1;jettySize=auto;html=1;" parent="1" edge="1">
          <mxGeometry relative="1" as="geometry">
            <mxPoint x="11821" y="1360" as="targetPoint" />
            <mxPoint x="11676" y="1360" as="sourcePoint" />
          </mxGeometry>
        </mxCell>
        <mxCell id="ByaOrVBiVzMIFA-mLrSC-388" value="" style="rounded=0;whiteSpace=wrap;html=1;" parent="1" vertex="1">
          <mxGeometry x="11621" y="1320" width="60" height="80" as="geometry" />
        </mxCell>
        <mxCell id="ByaOrVBiVzMIFA-mLrSC-389" value="CLK" style="text;strokeColor=none;fillColor=none;align=left;verticalAlign=middle;spacingLeft=4;spacingRight=4;overflow=hidden;points=[[0,0.5],[1,0.5]];portConstraint=eastwest;rotatable=0;whiteSpace=wrap;html=1;fontSize=22;" parent="1" vertex="1">
          <mxGeometry x="11463" y="1365" width="55" height="25" as="geometry" />
        </mxCell>
        <mxCell id="ByaOrVBiVzMIFA-mLrSC-390" style="edgeStyle=orthogonalEdgeStyle;rounded=0;orthogonalLoop=1;jettySize=auto;html=1;entryX=0.5;entryY=1.225;entryDx=0;entryDy=0;entryPerimeter=0;" parent="1" source="ByaOrVBiVzMIFA-mLrSC-389" edge="1">
          <mxGeometry relative="1" as="geometry">
            <mxPoint x="11619" y="1380" as="targetPoint" />
            <Array as="points">
              <mxPoint x="11536" y="1380" />
              <mxPoint x="11536" y="1380" />
            </Array>
          </mxGeometry>
        </mxCell>
        <mxCell id="ByaOrVBiVzMIFA-mLrSC-391" value="D" style="edgeLabel;html=1;align=center;verticalAlign=middle;resizable=0;points=[];fontSize=9;" parent="1" vertex="1" connectable="0">
          <mxGeometry x="11631.00348284405" y="1340.0037007644478" as="geometry">
            <mxPoint as="offset" />
          </mxGeometry>
        </mxCell>
        <mxCell id="ByaOrVBiVzMIFA-mLrSC-392" value="Q" style="edgeLabel;html=1;align=center;verticalAlign=middle;resizable=0;points=[];fontSize=9;" parent="1" vertex="1" connectable="0">
          <mxGeometry x="11643.00348284405" y="1348.0037007644478" as="geometry">
            <mxPoint x="29" y="11" as="offset" />
          </mxGeometry>
        </mxCell>
        <mxCell id="ByaOrVBiVzMIFA-mLrSC-393" value="" style="verticalLabelPosition=bottom;shadow=0;dashed=0;align=center;html=1;verticalAlign=top;shape=mxgraph.electrical.logic_gates.logic_gate;operation=xor;" parent="1" vertex="1">
          <mxGeometry x="10763.99" y="1460" width="112.01" height="79" as="geometry" />
        </mxCell>
        <mxCell id="ByaOrVBiVzMIFA-mLrSC-394" style="edgeStyle=orthogonalEdgeStyle;rounded=0;orthogonalLoop=1;jettySize=auto;html=1;exitX=0.996;exitY=0.498;exitDx=0;exitDy=0;exitPerimeter=0;entryX=0.207;entryY=0.25;entryDx=0;entryDy=0;entryPerimeter=0;" parent="1" source="ByaOrVBiVzMIFA-mLrSC-374" edge="1">
          <mxGeometry relative="1" as="geometry">
            <mxPoint x="10880" y="1180" as="sourcePoint" />
            <mxPoint x="10787.1195" y="1320" as="targetPoint" />
            <Array as="points">
              <mxPoint x="10880" y="1260" />
              <mxPoint x="10760" y="1260" />
              <mxPoint x="10760" y="1320" />
            </Array>
          </mxGeometry>
        </mxCell>
        <mxCell id="ByaOrVBiVzMIFA-mLrSC-396" value="" style="verticalLabelPosition=bottom;shadow=0;dashed=0;align=center;html=1;verticalAlign=top;shape=mxgraph.electrical.logic_gates.logic_gate;operation=or;" parent="1" vertex="1">
          <mxGeometry x="10763.5" y="1620" width="108.5" height="80" as="geometry" />
        </mxCell>
        <mxCell id="ByaOrVBiVzMIFA-mLrSC-397" value="" style="endArrow=classic;html=1;rounded=0;" parent="1" edge="1">
          <mxGeometry width="50" height="50" relative="1" as="geometry">
            <mxPoint x="10460" y="1640" as="sourcePoint" />
            <mxPoint x="10786" y="1640" as="targetPoint" />
          </mxGeometry>
        </mxCell>
        <mxCell id="ByaOrVBiVzMIFA-mLrSC-398" value="" style="endArrow=classic;html=1;rounded=0;" parent="1" edge="1">
          <mxGeometry width="50" height="50" relative="1" as="geometry">
            <mxPoint x="10440" y="1680" as="sourcePoint" />
            <mxPoint x="10785" y="1680" as="targetPoint" />
          </mxGeometry>
        </mxCell>
        <mxCell id="ByaOrVBiVzMIFA-mLrSC-399" style="edgeStyle=orthogonalEdgeStyle;rounded=0;orthogonalLoop=1;jettySize=auto;html=1;entryX=0.201;entryY=0.25;entryDx=0;entryDy=0;entryPerimeter=0;" parent="1" target="ByaOrVBiVzMIFA-mLrSC-393" edge="1">
          <mxGeometry relative="1" as="geometry">
            <mxPoint x="10493" y="1200.4999999999995" as="sourcePoint" />
            <mxPoint x="10785" y="1480" as="targetPoint" />
            <Array as="points">
              <mxPoint x="10500" y="1201" />
              <mxPoint x="10500" y="1480" />
            </Array>
          </mxGeometry>
        </mxCell>
        <mxCell id="ByaOrVBiVzMIFA-mLrSC-400" value="" style="endArrow=classic;html=1;rounded=0;exitX=0.5;exitY=0;exitDx=0;exitDy=0;exitPerimeter=0;entryX=0.198;entryY=0.751;entryDx=0;entryDy=0;entryPerimeter=0;" parent="1" source="ByaOrVBiVzMIFA-mLrSC-401" target="ByaOrVBiVzMIFA-mLrSC-393" edge="1">
          <mxGeometry width="50" height="50" relative="1" as="geometry">
            <mxPoint x="10627" y="1514" as="sourcePoint" />
            <mxPoint x="10787" y="1520" as="targetPoint" />
          </mxGeometry>
        </mxCell>
        <mxCell id="ByaOrVBiVzMIFA-mLrSC-401" value="" style="verticalLabelPosition=bottom;verticalAlign=top;html=1;shape=mxgraph.basic.arc;startAngle=0.4936371943260041;endAngle=0.008113115336112179;rotation=90;" parent="1" vertex="1">
          <mxGeometry x="10449.88" y="1509.63" width="25" height="19.75" as="geometry" />
        </mxCell>
        <mxCell id="ByaOrVBiVzMIFA-mLrSC-402" value="" style="endArrow=none;html=1;rounded=0;entryX=0.511;entryY=0.996;entryDx=0;entryDy=0;entryPerimeter=0;" parent="1" target="ByaOrVBiVzMIFA-mLrSC-401" edge="1">
          <mxGeometry width="50" height="50" relative="1" as="geometry">
            <mxPoint x="10440" y="1520" as="sourcePoint" />
            <mxPoint x="10450" y="1520" as="targetPoint" />
          </mxGeometry>
        </mxCell>
        <mxCell id="ByaOrVBiVzMIFA-mLrSC-439" style="edgeStyle=orthogonalEdgeStyle;rounded=0;orthogonalLoop=1;jettySize=auto;html=1;" parent="1" source="ByaOrVBiVzMIFA-mLrSC-404" target="ByaOrVBiVzMIFA-mLrSC-440" edge="1">
          <mxGeometry relative="1" as="geometry">
            <mxPoint x="11120" y="1520" as="targetPoint" />
          </mxGeometry>
        </mxCell>
        <mxCell id="ByaOrVBiVzMIFA-mLrSC-404" value="" style="verticalLabelPosition=bottom;shadow=0;dashed=0;align=center;html=1;verticalAlign=top;shape=mxgraph.electrical.logic_gates.logic_gate;operation=and;" parent="1" vertex="1">
          <mxGeometry x="10940" y="1620" width="110" height="80" as="geometry" />
        </mxCell>
        <mxCell id="ByaOrVBiVzMIFA-mLrSC-406" style="edgeStyle=orthogonalEdgeStyle;rounded=0;orthogonalLoop=1;jettySize=auto;html=1;entryX=0.197;entryY=0.251;entryDx=0;entryDy=0;entryPerimeter=0;" parent="1" source="ByaOrVBiVzMIFA-mLrSC-396" target="ByaOrVBiVzMIFA-mLrSC-404" edge="1">
          <mxGeometry relative="1" as="geometry" />
        </mxCell>
        <mxCell id="ByaOrVBiVzMIFA-mLrSC-408" value="" style="endArrow=classic;html=1;rounded=0;entryX=0.188;entryY=0.511;entryDx=0;entryDy=0;entryPerimeter=0;" parent="1" edge="1">
          <mxGeometry width="50" height="50" relative="1" as="geometry">
            <mxPoint x="10941" y="1680" as="sourcePoint" />
            <mxPoint x="10961.68" y="1680" as="targetPoint" />
          </mxGeometry>
        </mxCell>
        <mxCell id="ByaOrVBiVzMIFA-mLrSC-409" value="" style="endArrow=classic;html=1;rounded=0;entryX=0.188;entryY=0.511;entryDx=0;entryDy=0;entryPerimeter=0;" parent="1" edge="1">
          <mxGeometry width="50" height="50" relative="1" as="geometry">
            <mxPoint x="10941" y="1659.98" as="sourcePoint" />
            <mxPoint x="10961.68" y="1659.98" as="targetPoint" />
          </mxGeometry>
        </mxCell>
        <mxCell id="ByaOrVBiVzMIFA-mLrSC-422" style="edgeStyle=orthogonalEdgeStyle;rounded=0;orthogonalLoop=1;jettySize=auto;html=1;" parent="1" source="ByaOrVBiVzMIFA-mLrSC-410" edge="1">
          <mxGeometry relative="1" as="geometry">
            <mxPoint x="11620" y="1499.9999999999995" as="targetPoint" />
          </mxGeometry>
        </mxCell>
        <mxCell id="ByaOrVBiVzMIFA-mLrSC-438" style="edgeStyle=orthogonalEdgeStyle;rounded=0;orthogonalLoop=1;jettySize=auto;html=1;exitX=0.928;exitY=0.5;exitDx=0;exitDy=0;exitPerimeter=0;entryX=0.234;entryY=0.5;entryDx=0;entryDy=0;entryPerimeter=0;" parent="1" source="ByaOrVBiVzMIFA-mLrSC-410" edge="1">
          <mxGeometry relative="1" as="geometry">
            <mxPoint x="10790.048999999999" y="1340" as="targetPoint" />
            <mxPoint x="11041.73" y="1500.98" as="sourcePoint" />
            <Array as="points">
              <mxPoint x="11060" y="1500" />
              <mxPoint x="11060" y="1420" />
              <mxPoint x="10740" y="1420" />
              <mxPoint x="10740" y="1340" />
            </Array>
          </mxGeometry>
        </mxCell>
        <mxCell id="ByaOrVBiVzMIFA-mLrSC-410" value="" style="verticalLabelPosition=bottom;shadow=0;dashed=0;align=center;html=1;verticalAlign=top;shape=mxgraph.electrical.logic_gates.logic_gate;operation=and;" parent="1" vertex="1">
          <mxGeometry x="10938" y="1460" width="110" height="80" as="geometry" />
        </mxCell>
        <mxCell id="ByaOrVBiVzMIFA-mLrSC-413" value="" style="endArrow=classic;html=1;rounded=0;exitX=0.5;exitY=0;exitDx=0;exitDy=0;exitPerimeter=0;entryX=0.193;entryY=0.248;entryDx=0;entryDy=0;entryPerimeter=0;" parent="1" source="ByaOrVBiVzMIFA-mLrSC-414" target="ByaOrVBiVzMIFA-mLrSC-410" edge="1">
          <mxGeometry width="50" height="50" relative="1" as="geometry">
            <mxPoint x="10630" y="1440" as="sourcePoint" />
            <mxPoint x="10940" y="1440" as="targetPoint" />
            <Array as="points">
              <mxPoint x="10920" y="1440" />
              <mxPoint x="10920" y="1480" />
            </Array>
          </mxGeometry>
        </mxCell>
        <mxCell id="ByaOrVBiVzMIFA-mLrSC-414" value="" style="verticalLabelPosition=bottom;verticalAlign=top;html=1;shape=mxgraph.basic.arc;startAngle=0.5047732166712652;endAngle=0.008113115336112179;rotation=90;" parent="1" vertex="1">
          <mxGeometry x="10458.13" y="1389.38" width="17.5" height="102.75" as="geometry" />
        </mxCell>
        <mxCell id="ByaOrVBiVzMIFA-mLrSC-415" value="" style="endArrow=none;html=1;rounded=0;entryX=0.46;entryY=0.996;entryDx=0;entryDy=0;entryPerimeter=0;" parent="1" target="ByaOrVBiVzMIFA-mLrSC-414" edge="1">
          <mxGeometry width="50" height="50" relative="1" as="geometry">
            <mxPoint x="10400" y="1440" as="sourcePoint" />
            <mxPoint x="10415" y="1440" as="targetPoint" />
          </mxGeometry>
        </mxCell>
        <mxCell id="ByaOrVBiVzMIFA-mLrSC-418" style="edgeStyle=orthogonalEdgeStyle;rounded=0;orthogonalLoop=1;jettySize=auto;html=1;entryX=0.197;entryY=0.505;entryDx=0;entryDy=0;entryPerimeter=0;" parent="1" source="ByaOrVBiVzMIFA-mLrSC-393" target="ByaOrVBiVzMIFA-mLrSC-410" edge="1">
          <mxGeometry relative="1" as="geometry" />
        </mxCell>
        <mxCell id="ByaOrVBiVzMIFA-mLrSC-421" style="edgeStyle=orthogonalEdgeStyle;rounded=0;orthogonalLoop=1;jettySize=auto;html=1;entryX=0.19;entryY=0.75;entryDx=0;entryDy=0;entryPerimeter=0;exitX=0.967;exitY=0.507;exitDx=0;exitDy=0;exitPerimeter=0;" parent="1" source="ByaOrVBiVzMIFA-mLrSC-419" target="ByaOrVBiVzMIFA-mLrSC-410" edge="1">
          <mxGeometry relative="1" as="geometry">
            <mxPoint x="10920" y="1520" as="targetPoint" />
            <mxPoint x="10905" y="1575" as="sourcePoint" />
            <Array as="points">
              <mxPoint x="10920" y="1580" />
              <mxPoint x="10920" y="1520" />
            </Array>
          </mxGeometry>
        </mxCell>
        <mxCell id="ByaOrVBiVzMIFA-mLrSC-419" value="" style="verticalLabelPosition=bottom;shadow=0;dashed=0;align=center;html=1;verticalAlign=top;shape=mxgraph.electrical.logic_gates.inverter_2;direction=west;" parent="1" vertex="1">
          <mxGeometry x="10925" y="1550" width="100" height="60" as="geometry" />
        </mxCell>
        <mxCell id="ByaOrVBiVzMIFA-mLrSC-420" style="edgeStyle=orthogonalEdgeStyle;rounded=0;orthogonalLoop=1;jettySize=auto;html=1;entryX=0.167;entryY=0.501;entryDx=0;entryDy=0;entryPerimeter=0;exitX=1;exitY=0.5;exitDx=0;exitDy=0;exitPerimeter=0;" parent="1" source="ByaOrVBiVzMIFA-mLrSC-404" target="ByaOrVBiVzMIFA-mLrSC-419" edge="1">
          <mxGeometry relative="1" as="geometry">
            <Array as="points">
              <mxPoint x="11040" y="1660" />
              <mxPoint x="11040" y="1580" />
              <mxPoint x="11030" y="1580" />
            </Array>
          </mxGeometry>
        </mxCell>
        <mxCell id="ByaOrVBiVzMIFA-mLrSC-423" style="edgeStyle=orthogonalEdgeStyle;rounded=0;orthogonalLoop=1;jettySize=auto;html=1;" parent="1" edge="1">
          <mxGeometry relative="1" as="geometry">
            <mxPoint x="11822" y="1519.51" as="targetPoint" />
            <mxPoint x="11677" y="1519.51" as="sourcePoint" />
          </mxGeometry>
        </mxCell>
        <mxCell id="ByaOrVBiVzMIFA-mLrSC-424" value="" style="rounded=0;whiteSpace=wrap;html=1;" parent="1" vertex="1">
          <mxGeometry x="11622" y="1479.51" width="60" height="80" as="geometry" />
        </mxCell>
        <mxCell id="ByaOrVBiVzMIFA-mLrSC-425" value="CLK" style="text;strokeColor=none;fillColor=none;align=left;verticalAlign=middle;spacingLeft=4;spacingRight=4;overflow=hidden;points=[[0,0.5],[1,0.5]];portConstraint=eastwest;rotatable=0;whiteSpace=wrap;html=1;fontSize=22;" parent="1" vertex="1">
          <mxGeometry x="11464" y="1524.51" width="55" height="25" as="geometry" />
        </mxCell>
        <mxCell id="ByaOrVBiVzMIFA-mLrSC-426" style="edgeStyle=orthogonalEdgeStyle;rounded=0;orthogonalLoop=1;jettySize=auto;html=1;entryX=0.5;entryY=1.225;entryDx=0;entryDy=0;entryPerimeter=0;" parent="1" source="ByaOrVBiVzMIFA-mLrSC-425" edge="1">
          <mxGeometry relative="1" as="geometry">
            <mxPoint x="11620" y="1539.51" as="targetPoint" />
            <Array as="points">
              <mxPoint x="11537" y="1539.51" />
              <mxPoint x="11537" y="1539.51" />
            </Array>
          </mxGeometry>
        </mxCell>
        <mxCell id="ByaOrVBiVzMIFA-mLrSC-427" value="D" style="edgeLabel;html=1;align=center;verticalAlign=middle;resizable=0;points=[];fontSize=9;" parent="1" vertex="1" connectable="0">
          <mxGeometry x="11632.00348284405" y="1499.5137007644478" as="geometry">
            <mxPoint as="offset" />
          </mxGeometry>
        </mxCell>
        <mxCell id="ByaOrVBiVzMIFA-mLrSC-428" value="Q" style="edgeLabel;html=1;align=center;verticalAlign=middle;resizable=0;points=[];fontSize=9;" parent="1" vertex="1" connectable="0">
          <mxGeometry x="11644.00348284405" y="1507.5137007644478" as="geometry">
            <mxPoint x="29" y="11" as="offset" />
          </mxGeometry>
        </mxCell>
        <mxCell id="ByaOrVBiVzMIFA-mLrSC-429" style="edgeStyle=orthogonalEdgeStyle;rounded=0;orthogonalLoop=1;jettySize=auto;html=1;" parent="1" edge="1">
          <mxGeometry relative="1" as="geometry">
            <mxPoint x="11822" y="1680" as="targetPoint" />
            <mxPoint x="11677" y="1680" as="sourcePoint" />
          </mxGeometry>
        </mxCell>
        <mxCell id="ByaOrVBiVzMIFA-mLrSC-430" value="" style="rounded=0;whiteSpace=wrap;html=1;" parent="1" vertex="1">
          <mxGeometry x="11622" y="1640" width="60" height="80" as="geometry" />
        </mxCell>
        <mxCell id="ByaOrVBiVzMIFA-mLrSC-431" value="CLK" style="text;strokeColor=none;fillColor=none;align=left;verticalAlign=middle;spacingLeft=4;spacingRight=4;overflow=hidden;points=[[0,0.5],[1,0.5]];portConstraint=eastwest;rotatable=0;whiteSpace=wrap;html=1;fontSize=22;" parent="1" vertex="1">
          <mxGeometry x="11464" y="1685" width="55" height="25" as="geometry" />
        </mxCell>
        <mxCell id="ByaOrVBiVzMIFA-mLrSC-432" style="edgeStyle=orthogonalEdgeStyle;rounded=0;orthogonalLoop=1;jettySize=auto;html=1;entryX=0.5;entryY=1.225;entryDx=0;entryDy=0;entryPerimeter=0;" parent="1" source="ByaOrVBiVzMIFA-mLrSC-431" edge="1">
          <mxGeometry relative="1" as="geometry">
            <mxPoint x="11620" y="1700" as="targetPoint" />
            <Array as="points">
              <mxPoint x="11537" y="1700" />
              <mxPoint x="11537" y="1700" />
            </Array>
          </mxGeometry>
        </mxCell>
        <mxCell id="ByaOrVBiVzMIFA-mLrSC-433" value="D" style="edgeLabel;html=1;align=center;verticalAlign=middle;resizable=0;points=[];fontSize=9;" parent="1" vertex="1" connectable="0">
          <mxGeometry x="11632.00348284405" y="1660.0037007644478" as="geometry">
            <mxPoint as="offset" />
          </mxGeometry>
        </mxCell>
        <mxCell id="ByaOrVBiVzMIFA-mLrSC-434" value="Q" style="edgeLabel;html=1;align=center;verticalAlign=middle;resizable=0;points=[];fontSize=9;" parent="1" vertex="1" connectable="0">
          <mxGeometry x="11644.00348284405" y="1668.0037007644478" as="geometry">
            <mxPoint x="29" y="11" as="offset" />
          </mxGeometry>
        </mxCell>
        <mxCell id="ByaOrVBiVzMIFA-mLrSC-435" style="edgeStyle=orthogonalEdgeStyle;rounded=0;orthogonalLoop=1;jettySize=auto;html=1;" parent="1" source="ByaOrVBiVzMIFA-mLrSC-404" edge="1">
          <mxGeometry relative="1" as="geometry">
            <mxPoint x="11623" y="1659" as="targetPoint" />
          </mxGeometry>
        </mxCell>
        <mxCell id="ByaOrVBiVzMIFA-mLrSC-437" style="edgeStyle=orthogonalEdgeStyle;rounded=0;orthogonalLoop=1;jettySize=auto;html=1;entryX=0.008;entryY=0.232;entryDx=0;entryDy=0;entryPerimeter=0;" parent="1" source="ByaOrVBiVzMIFA-mLrSC-374" target="ByaOrVBiVzMIFA-mLrSC-381" edge="1">
          <mxGeometry relative="1" as="geometry" />
        </mxCell>
        <mxCell id="ByaOrVBiVzMIFA-mLrSC-440" value="" style="verticalLabelPosition=bottom;verticalAlign=top;html=1;shape=mxgraph.basic.arc;startAngle=0.5047732166712652;endAngle=0.9935513039171313;direction=west;" parent="1" vertex="1">
          <mxGeometry x="11104" y="1489" width="31" height="21" as="geometry" />
        </mxCell>
        <mxCell id="ByaOrVBiVzMIFA-mLrSC-441" style="edgeStyle=orthogonalEdgeStyle;rounded=0;orthogonalLoop=1;jettySize=auto;html=1;entryX=0.199;entryY=0.75;entryDx=0;entryDy=0;entryPerimeter=0;" parent="1" source="ByaOrVBiVzMIFA-mLrSC-440" edge="1">
          <mxGeometry relative="1" as="geometry">
            <Array as="points">
              <mxPoint x="11119" y="1400" />
              <mxPoint x="10760" y="1400" />
              <mxPoint x="10760" y="1360" />
            </Array>
            <mxPoint x="10786.2515" y="1360" as="targetPoint" />
          </mxGeometry>
        </mxCell>
        <mxCell id="ByaOrVBiVzMIFA-mLrSC-444" value="&amp;nbsp;Arith_Flag" style="text;strokeColor=none;fillColor=none;align=left;verticalAlign=middle;spacingLeft=4;spacingRight=4;overflow=hidden;points=[[0,0.5],[1,0.5]];portConstraint=eastwest;rotatable=0;whiteSpace=wrap;html=1;fontSize=22;" parent="1" vertex="1">
          <mxGeometry x="11828" y="1176.5" width="140" height="43.5" as="geometry" />
        </mxCell>
        <mxCell id="ByaOrVBiVzMIFA-mLrSC-445" value="&amp;nbsp;Logic_Flag" style="text;strokeColor=none;fillColor=none;align=left;verticalAlign=middle;spacingLeft=4;spacingRight=4;overflow=hidden;points=[[0,0.5],[1,0.5]];portConstraint=eastwest;rotatable=0;whiteSpace=wrap;html=1;fontSize=22;" parent="1" vertex="1">
          <mxGeometry x="11824" y="1339.5" width="140" height="42.5" as="geometry" />
        </mxCell>
        <mxCell id="ByaOrVBiVzMIFA-mLrSC-446" value="&amp;nbsp;CMP_Flag" style="text;strokeColor=none;fillColor=none;align=left;verticalAlign=middle;spacingLeft=4;spacingRight=4;overflow=hidden;points=[[0,0.5],[1,0.5]];portConstraint=eastwest;rotatable=0;whiteSpace=wrap;html=1;fontSize=22;" parent="1" vertex="1">
          <mxGeometry x="11827" y="1497.5" width="140" height="42.5" as="geometry" />
        </mxCell>
        <mxCell id="ByaOrVBiVzMIFA-mLrSC-447" value="&amp;nbsp;Shift_Flag" style="text;strokeColor=none;fillColor=none;align=left;verticalAlign=middle;spacingLeft=4;spacingRight=4;overflow=hidden;points=[[0,0.5],[1,0.5]];portConstraint=eastwest;rotatable=0;whiteSpace=wrap;html=1;fontSize=22;" parent="1" vertex="1">
          <mxGeometry x="11829" y="1657.5" width="140" height="42.5" as="geometry" />
        </mxCell>
        <mxCell id="ByaOrVBiVzMIFA-mLrSC-448" value="" style="endArrow=none;dashed=1;html=1;rounded=0;" parent="1" edge="1">
          <mxGeometry width="50" height="50" relative="1" as="geometry">
            <mxPoint x="11820" y="1220" as="sourcePoint" />
            <mxPoint x="11820" y="1220" as="targetPoint" />
            <Array as="points">
              <mxPoint x="11960" y="1220" />
              <mxPoint x="11960" y="1200" />
              <mxPoint x="11960" y="1180" />
              <mxPoint x="11820" y="1180" />
            </Array>
          </mxGeometry>
        </mxCell>
        <mxCell id="ByaOrVBiVzMIFA-mLrSC-449" value="" style="endArrow=none;dashed=1;html=1;rounded=0;" parent="1" edge="1">
          <mxGeometry width="50" height="50" relative="1" as="geometry">
            <mxPoint x="11820" y="1380" as="sourcePoint" />
            <mxPoint x="11820" y="1380" as="targetPoint" />
            <Array as="points">
              <mxPoint x="11960" y="1380" />
              <mxPoint x="11960" y="1360" />
              <mxPoint x="11960" y="1340" />
              <mxPoint x="11820" y="1340" />
            </Array>
          </mxGeometry>
        </mxCell>
        <mxCell id="ByaOrVBiVzMIFA-mLrSC-452" value="" style="endArrow=none;dashed=1;html=1;rounded=0;" parent="1" edge="1">
          <mxGeometry width="50" height="50" relative="1" as="geometry">
            <mxPoint x="11820" y="1539.51" as="sourcePoint" />
            <mxPoint x="11820" y="1539.51" as="targetPoint" />
            <Array as="points">
              <mxPoint x="11960" y="1539.51" />
              <mxPoint x="11960" y="1519.51" />
              <mxPoint x="11960" y="1499.51" />
              <mxPoint x="11820" y="1499.51" />
            </Array>
          </mxGeometry>
        </mxCell>
        <mxCell id="ByaOrVBiVzMIFA-mLrSC-454" value="" style="endArrow=none;dashed=1;html=1;rounded=0;" parent="1" edge="1">
          <mxGeometry width="50" height="50" relative="1" as="geometry">
            <mxPoint x="11820" y="1700" as="sourcePoint" />
            <mxPoint x="11820" y="1700" as="targetPoint" />
            <Array as="points">
              <mxPoint x="11960" y="1700" />
              <mxPoint x="11960" y="1680" />
              <mxPoint x="11960" y="1660" />
              <mxPoint x="11820" y="1660" />
            </Array>
          </mxGeometry>
        </mxCell>
        <mxCell id="bmV6YR-AokdeZAK9ov8G-2" value="" style="verticalLabelPosition=bottom;shadow=0;dashed=0;align=center;html=1;verticalAlign=top;shape=mxgraph.electrical.logic_gates.logic_gate;operation=or;negating=1;negSize=0.15;" parent="1" vertex="1">
          <mxGeometry x="10763.5" y="1301" width="116.67" height="78" as="geometry" />
        </mxCell>
      </root>
    </mxGraphModel>
  </diagram>
</mxfile>
